RedHatDisplayVF-BlackItalic.ufo
<glyph name="exclam" format="2">
  <advance width="252"/>
  <unicode hex="0021"/>
  <outline>
    <contour>
      <point x="56" y="216" type="line"/>
      <point x="177" y="216" type="line"/>
      <point x="299" y="700" type="line"/>
      <point x="138" y="700" type="line"/>
    </contour>
    <contour>
      <point x="77" y="-11" type="curve" smooth="yes"/>
      <point x="131" y="-11"/>
      <point x="179" y="38"/>
      <point x="179" y="93" type="curve" smooth="yes"/>
      <point x="179" y="139"/>
      <point x="145" y="174"/>
      <point x="99" y="174" type="curve" smooth="yes"/>
      <point x="43" y="174"/>
      <point x="-5" y="126"/>
      <point x="-5" y="70" type="curve" smooth="yes"/>
      <point x="-5" y="24"/>
      <point x="30" y="-11"/>
    </contour>
  </outline>
</glyph>
<glyph name="dollar" format="2">
  <advance width="602"/>
  <unicode hex="0024"/>
  <outline>
    <contour>
      <point x="185" y="-66" type="line"/>
      <point x="256" y="-66" type="line"/>
      <point x="273" y="14" type="line"/>
      <point x="277" y="14" type="line"/>
      <point x="456" y="14"/>
      <point x="572" y="104"/>
      <point x="572" y="243" type="curve" smooth="yes"/>
      <point x="572" y="328"/>
      <point x="515" y="387"/>
      <point x="408" y="412" type="curve" smooth="yes"/>
      <point x="360" y="423" type="line"/>
      <point x="386" y="545" type="line"/>
      <point x="437" y="532"/>
      <point x="483" y="505"/>
      <point x="526" y="463" type="curve"/>
      <point x="625" y="575" type="line"/>
      <point x="571" y="628"/>
      <point x="496" y="665"/>
      <point x="414" y="680" type="curve"/>
      <point x="433" y="768" type="line"/>
      <point x="362" y="768" type="line"/>
      <point x="345" y="688" type="line"/>
      <point x="328" y="688" type="line"/>
      <point x="159" y="688"/>
      <point x="54" y="606"/>
      <point x="54" y="473" type="curve" smooth="yes"/>
      <point x="54" y="390"/>
      <point x="104" y="331"/>
      <point x="194" y="309" type="curve" smooth="yes"/>
      <point x="261" y="292" type="line"/>
      <point x="232" y="155" type="line"/>
      <point x="176" y="169"/>
      <point x="125" y="201"/>
      <point x="73" y="255" type="curve"/>
      <point x="-30" y="144" type="line"/>
      <point x="32" y="77"/>
      <point x="113" y="35"/>
      <point x="203" y="20" type="curve"/>
    </contour>
    <contour>
      <point x="291" y="433" type="line"/>
      <point x="275" y="437" type="line" smooth="yes"/>
      <point x="227" y="448"/>
      <point x="205" y="466"/>
      <point x="205" y="493" type="curve" smooth="yes"/>
      <point x="205" y="531"/>
      <point x="245" y="554"/>
      <point x="309" y="554" type="curve" smooth="yes"/>
      <point x="316" y="554" type="line"/>
    </contour>
    <contour>
      <point x="301" y="148" type="curve"/>
      <point x="329" y="281" type="line"/>
      <point x="392" y="264"/>
      <point x="414" y="246"/>
      <point x="414" y="215" type="curve" smooth="yes"/>
      <point x="414" y="174"/>
      <point x="372" y="149"/>
    </contour>
  </outline>
</glyph>
<glyph name="quotesingle" format="2">
  <advance width="269"/>
  <unicode hex="0027"/>
  <outline>
    <contour>
      <point x="105" y="396" type="line"/>
      <point x="221" y="396" type="line"/>
      <point x="306" y="706" type="line"/>
      <point x="153" y="706" type="line"/>
    </contour>
  </outline>
</glyph>
<glyph name="parenleft" format="2">
  <advance width="413"/>
  <unicode hex="0028"/>
  <outline>
    <contour>
      <point x="207" y="-221" type="curve"/>
      <point x="314" y="-130" type="line"/>
      <point x="228" y="-58"/>
      <point x="183" y="38"/>
      <point x="183" y="151" type="curve" smooth="yes"/>
      <point x="183" y="345"/>
      <point x="291" y="516"/>
      <point x="470" y="605" type="curve"/>
      <point x="403" y="711" type="line"/>
      <point x="178" y="607"/>
      <point x="35" y="383"/>
      <point x="35" y="135" type="curve" smooth="yes"/>
      <point x="35" y="-12"/>
      <point x="95" y="-137"/>
    </contour>
  </outline>
</glyph>
<glyph name="asterisk" format="2">
  <advance width="477"/>
  <unicode hex="002A"/>
  <outline>
    <contour>
      <point x="199" y="307" type="line"/>
      <point x="300" y="307" type="line"/>
      <point x="320" y="411" type="line"/>
      <point x="401" y="344" type="line"/>
      <point x="474" y="425" type="line"/>
      <point x="383" y="494" type="line"/>
      <point x="507" y="554" type="line"/>
      <point x="468" y="644" type="line"/>
      <point x="356" y="587" type="line"/>
      <point x="382" y="700" type="line"/>
      <point x="282" y="700" type="line"/>
      <point x="260" y="591" type="line"/>
      <point x="175" y="661" type="line"/>
      <point x="104" y="582" type="line"/>
      <point x="198" y="509" type="line"/>
      <point x="79" y="453" type="line"/>
      <point x="116" y="361" type="line"/>
      <point x="223" y="415" type="line"/>
    </contour>
  </outline>
</glyph>
<glyph name="one" format="2">
  <advance width="366"/>
  <unicode hex="0031"/>
  <outline>
    <contour>
      <point x="104" y="0" type="line"/>
      <point x="263" y="0" type="line"/>
      <point x="412" y="700" type="line"/>
      <point x="312" y="700" type="line"/>
      <point x="93" y="618" type="line"/>
      <point x="64" y="478" type="line"/>
      <point x="218" y="536" type="line"/>
    </contour>
  </outline>
</glyph>
<glyph name="four" format="2">
  <advance width="680"/>
  <unicode hex="0034"/>
  <outline>
    <contour>
      <point x="357" y="0" type="line"/>
      <point x="515" y="0" type="line"/>
      <point x="548" y="155" type="line"/>
      <point x="634" y="155" type="line"/>
      <point x="663" y="290" type="line"/>
      <point x="577" y="290" type="line"/>
      <point x="664" y="700" type="line"/>
      <point x="479" y="700" type="line"/>
      <point x="31" y="286" type="line"/>
      <point x="3" y="155" type="line"/>
      <point x="390" y="155" type="line"/>
    </contour>
    <contour>
      <point x="218" y="290" type="line"/>
      <point x="468" y="520" type="line"/>
      <point x="419" y="290" type="line"/>
    </contour>
  </outline>
</glyph>
<glyph name="nine" format="2">
  <advance width="633"/>
  <unicode hex="0039"/>
  <outline>
    <contour>
      <point x="354" y="711" type="curve" smooth="yes"/>
      <point x="203" y="711"/>
      <point x="79" y="596"/>
      <point x="79" y="456" type="curve" smooth="yes"/>
      <point x="79" y="349"/>
      <point x="166" y="270"/>
      <point x="283" y="270" type="curve" smooth="yes"/>
      <point x="350" y="270"/>
      <point x="414" y="303"/>
      <point x="462" y="363" type="curve"/>
      <point x="440" y="223"/>
      <point x="351" y="124"/>
      <point x="248" y="124" type="curve" smooth="yes"/>
      <point x="197" y="124"/>
      <point x="153" y="143"/>
      <point x="111" y="183" type="curve"/>
      <point x="16" y="75" type="line"/>
      <point x="70" y="20"/>
      <point x="149" y="-11"/>
      <point x="236" y="-11" type="curve" smooth="yes"/>
      <point x="448" y="-11"/>
      <point x="615" y="182"/>
      <point x="615" y="426" type="curve" smooth="yes"/>
      <point x="615" y="601"/>
      <point x="514" y="711"/>
    </contour>
    <contour>
      <point x="343" y="578" type="curve" smooth="yes"/>
      <point x="417" y="578"/>
      <point x="465" y="524"/>
      <point x="468" y="438" type="curve"/>
      <point x="428" y="404"/>
      <point x="380" y="387"/>
      <point x="329" y="387" type="curve" smooth="yes"/>
      <point x="271" y="387"/>
      <point x="226" y="425"/>
      <point x="226" y="475" type="curve" smooth="yes"/>
      <point x="226" y="533"/>
      <point x="277" y="578"/>
    </contour>
  </outline>
</glyph>
<glyph name="less" format="2">
  <advance width="600"/>
  <unicode hex="003C"/>
  <outline>
    <contour>
      <point x="393" y="43" type="line"/>
      <point x="493" y="134" type="line"/>
      <point x="289" y="342" type="line"/>
      <point x="588" y="555" type="line"/>
      <point x="524" y="652" type="line"/>
      <point x="102" y="347" type="line"/>
    </contour>
  </outline>
</glyph>
<glyph name="question" format="2">
  <advance width="523"/>
  <unicode hex="003F"/>
  <outline>
    <contour>
      <point x="162" y="219" type="curve"/>
      <point x="295" y="219" type="line"/>
      <point x="304" y="267"/>
      <point x="321" y="289"/>
      <point x="365" y="313" type="curve" smooth="yes"/>
      <point x="393" y="329" type="line" smooth="yes"/>
      <point x="510" y="396"/>
      <point x="558" y="457"/>
      <point x="558" y="539" type="curve" smooth="yes"/>
      <point x="558" y="640"/>
      <point x="466" y="710"/>
      <point x="334" y="710" type="curve" smooth="yes"/>
      <point x="223" y="710"/>
      <point x="119" y="650"/>
      <point x="63" y="554" type="curve"/>
      <point x="180" y="499" type="line"/>
      <point x="208" y="545"/>
      <point x="259" y="575"/>
      <point x="313" y="575" type="curve" smooth="yes"/>
      <point x="366" y="575"/>
      <point x="399" y="552"/>
      <point x="399" y="515" type="curve" smooth="yes"/>
      <point x="399" y="489"/>
      <point x="376" y="461"/>
      <point x="335" y="437" type="curve" smooth="yes"/>
      <point x="274" y="399" type="line" smooth="yes"/>
      <point x="204" y="357"/>
      <point x="177" y="313"/>
    </contour>
    <contour>
      <point x="191" y="-11" type="curve" smooth="yes"/>
      <point x="245" y="-11"/>
      <point x="293" y="38"/>
      <point x="293" y="93" type="curve" smooth="yes"/>
      <point x="293" y="139"/>
      <point x="259" y="174"/>
      <point x="213" y="174" type="curve" smooth="yes"/>
      <point x="156" y="174"/>
      <point x="109" y="126"/>
      <point x="109" y="70" type="curve" smooth="yes"/>
      <point x="109" y="24"/>
      <point x="144" y="-11"/>
    </contour>
  </outline>
</glyph>
<glyph name="at" format="2">
  <advance width="777"/>
  <unicode hex="0040"/>
  <outline>
    <contour>
      <point x="401" y="-144.0" type="curve" smooth="yes"/>
      <point x="467" y="-144.0"/>
      <point x="526" y="-130"/>
      <point x="591.0" y="-101" type="curve"/>
      <point x="561" y="-36" type="line"/>
      <point x="513" y="-58"/>
      <point x="460" y="-69"/>
      <point x="400" y="-69" type="curve" smooth="yes"/>
      <point x="224" y="-69"/>
      <point x="105" y="45"/>
      <point x="105" y="215" type="curve" smooth="yes"/>
      <point x="105" y="386"/>
      <point x="233" y="517"/>
      <point x="400" y="517" type="curve"/>
      <point x="550" y="517"/>
      <point x="662" y="412"/>
      <point x="662" y="273" type="curve" smooth="yes"/>
      <point x="662" y="183"/>
      <point x="623" y="123"/>
      <point x="565" y="123" type="curve" smooth="yes"/>
      <point x="537" y="123"/>
      <point x="523" y="138"/>
      <point x="529" y="166" type="curve" smooth="yes"/>
      <point x="574" y="377" type="line"/>
      <point x="462" y="377" type="line"/>
      <point x="459" y="360" type="line"/>
      <point x="435" y="379"/>
      <point x="404" y="390"/>
      <point x="370" y="390" type="curve" smooth="yes"/>
      <point x="268" y="390"/>
      <point x="189" y="308"/>
      <point x="189" y="203" type="curve" smooth="yes"/>
      <point x="189" y="116.0"/>
      <point x="253" y="46"/>
      <point x="335" y="46" type="curve" smooth="yes"/>
      <point x="372" y="46"/>
      <point x="410" y="60"/>
      <point x="439" y="85" type="curve"/>
      <point x="459" y="58"/>
      <point x="496" y="44"/>
      <point x="547" y="44" type="curve" smooth="yes"/>
      <point x="664" y="44"/>
      <point x="744" y="141"/>
      <point x="744" y="281" type="curve" smooth="yes"/>
      <point x="744" y="451"/>
      <point x="595" y="584"/>
      <point x="403" y="584" type="curve"/>
      <point x="186" y="584"/>
      <point x="26" y="424"/>
      <point x="26" y="207.0" type="curve" smooth="yes"/>
      <point x="26" y="4"/>
      <point x="183" y="-144.0"/>
    </contour>
    <contour>
      <point x="363" y="137" type="curve" smooth="yes"/>
      <point x="324" y="137"/>
      <point x="296" y="169"/>
      <point x="296" y="213" type="curve" smooth="yes"/>
      <point x="296" y="259"/>
      <point x="332" y="295"/>
      <point x="376" y="295" type="curve" smooth="yes"/>
      <point x="404" y="295"/>
      <point x="425" y="286"/>
      <point x="439" y="266" type="curve"/>
      <point x="423" y="183" type="line" smooth="yes"/>
      <point x="421" y="174"/>
      <point x="420" y="166"/>
      <point x="420" y="158" type="curve"/>
      <point x="402" y="143"/>
      <point x="383" y="137"/>
    </contour>
  </outline>
</glyph>
<glyph name="A" format="2">
  <advance width="738"/>
  <unicode hex="0041"/>
  <anchor x="452" y="700" name="top"/>
  <anchor x="689" y="0" name="bottom"/>
  <outline>
    <contour>
      <point x="-63" y="0" type="line"/>
      <point x="121" y="0" type="line"/>
      <point x="219" y="169" type="line"/>
      <point x="487" y="169" type="line"/>
      <point x="515" y="0" type="line"/>
      <point x="689" y="0" type="line"/>
      <point x="557" y="700" type="line"/>
      <point x="364" y="700" type="line"/>
    </contour>
    <contour>
      <point x="298" y="306" type="line"/>
      <point x="428" y="530" type="line"/>
      <point x="465" y="306" type="line"/>
    </contour>
  </outline>
</glyph>
<glyph name="B" format="2">
  <advance width="691"/>
  <unicode hex="0042"/>
  <outline>
    <contour>
      <point x="1" y="0" type="line"/>
      <point x="380" y="0" type="line" smooth="yes"/>
      <point x="533" y="0"/>
      <point x="650" y="97"/>
      <point x="650" y="225" type="curve" smooth="yes"/>
      <point x="650" y="278"/>
      <point x="622" y="323"/>
      <point x="576" y="353" type="curve"/>
      <point x="640" y="392"/>
      <point x="682" y="456"/>
      <point x="682" y="528" type="curve" smooth="yes"/>
      <point x="682" y="632"/>
      <point x="597" y="700"/>
      <point x="468" y="700" type="curve" smooth="yes"/>
      <point x="150" y="700" type="line"/>
    </contour>
    <contour>
      <point x="259" y="421" type="line"/>
      <point x="288" y="559" type="line"/>
      <point x="439" y="559" type="line" smooth="yes"/>
      <point x="483" y="559"/>
      <point x="510" y="537"/>
      <point x="510" y="500" type="curve" smooth="yes"/>
      <point x="510" y="455"/>
      <point x="471" y="421"/>
      <point x="419" y="421" type="curve" smooth="yes"/>
    </contour>
    <contour>
      <point x="199" y="141" type="line"/>
      <point x="231" y="289" type="line"/>
      <point x="404" y="289" type="line" smooth="yes"/>
      <point x="452" y="289"/>
      <point x="481" y="265"/>
      <point x="481" y="226" type="curve" smooth="yes"/>
      <point x="481" y="177"/>
      <point x="440" y="141"/>
      <point x="384" y="141" type="curve" smooth="yes"/>
    </contour>
  </outline>
</glyph>
<glyph name="C" format="2">
  <advance width="707"/>
  <unicode hex="0043"/>
  <anchor x="451" y="700" name="top"/>
  <anchor x="374" y="0" name="bottom"/>
  <outline>
    <contour>
      <point x="390" y="-12" type="curve" smooth="yes"/>
      <point x="494" y="-12"/>
      <point x="606" y="36"/>
      <point x="680" y="112" type="curve"/>
      <point x="587" y="227" type="line"/>
      <point x="535" y="174"/>
      <point x="475" y="146"/>
      <point x="411" y="146" type="curve" smooth="yes"/>
      <point x="303" y="146"/>
      <point x="223" y="225"/>
      <point x="223" y="330" type="curve" smooth="yes"/>
      <point x="223" y="451"/>
      <point x="316" y="550"/>
      <point x="431" y="550" type="curve" smooth="yes"/>
      <point x="506" y="550"/>
      <point x="565" y="515"/>
      <point x="602" y="450" type="curve"/>
      <point x="733" y="560" type="line"/>
      <point x="674" y="655"/>
      <point x="571" y="707"/>
      <point x="440" y="707" type="curve" smooth="yes"/>
      <point x="225" y="707"/>
      <point x="50" y="534"/>
      <point x="50" y="321" type="curve" smooth="yes"/>
      <point x="50" y="134"/>
      <point x="199" y="-12"/>
    </contour>
  </outline>
</glyph>
<glyph name="D" format="2">
  <advance width="730"/>
  <unicode hex="0044"/>
  <anchor x="459" y="700" name="top"/>
  <outline>
    <contour>
      <point x="1" y="0" type="line"/>
      <point x="316" y="0" type="line" smooth="yes"/>
      <point x="534" y="0"/>
      <point x="718" y="177"/>
      <point x="718" y="387" type="curve" smooth="yes"/>
      <point x="718" y="566"/>
      <point x="578" y="700"/>
      <point x="391" y="700" type="curve" smooth="yes"/>
      <point x="150" y="700" type="line"/>
    </contour>
    <contour>
      <point x="201" y="152" type="line"/>
      <point x="286" y="548" type="line"/>
      <point x="370" y="548" type="line" smooth="yes"/>
      <point x="469" y="548"/>
      <point x="542" y="474"/>
      <point x="542" y="373" type="curve" smooth="yes"/>
      <point x="542" y="250"/>
      <point x="447" y="152"/>
      <point x="328" y="152" type="curve" smooth="yes"/>
    </contour>
  </outline>
</glyph>
<glyph name="F" format="2">
  <advance width="641"/>
  <unicode hex="0046"/>
  <outline>
    <contour>
      <point x="1" y="0" type="line"/>
      <point x="169" y="0" type="line"/>
      <point x="228" y="276" type="line"/>
      <point x="479" y="276" type="line"/>
      <point x="509" y="420" type="line"/>
      <point x="258" y="420" type="line"/>
      <point x="286" y="551" type="line"/>
      <point x="663" y="551" type="line"/>
      <point x="695" y="700" type="line"/>
      <point x="150" y="700" type="line"/>
    </contour>
  </outline>
</glyph>
<glyph name="G" format="2">
  <advance width="780"/>
  <unicode hex="0047"/>
  <anchor x="455" y="701" name="top"/>
  <anchor x="402" y="0" name="bottom"/>
  <outline>
    <contour>
      <point x="381" y="-14" type="curve" smooth="yes"/>
      <point x="568" y="-14"/>
      <point x="725" y="127"/>
      <point x="762" y="328" type="curve" smooth="yes"/>
      <point x="776" y="404" type="line"/>
      <point x="412" y="404" type="line"/>
      <point x="380" y="256" type="line"/>
      <point x="567" y="256" type="line"/>
      <point x="543" y="188"/>
      <point x="476" y="142"/>
      <point x="398" y="142" type="curve" smooth="yes"/>
      <point x="294" y="142"/>
      <point x="221" y="216"/>
      <point x="221" y="319" type="curve" smooth="yes"/>
      <point x="221" y="447"/>
      <point x="316" y="550"/>
      <point x="434" y="550" type="curve" smooth="yes"/>
      <point x="507" y="550"/>
      <point x="569" y="514"/>
      <point x="604" y="450" type="curve"/>
      <point x="736" y="560" type="line"/>
      <point x="680" y="651"/>
      <point x="570" y="708"/>
      <point x="448" y="708" type="curve" smooth="yes"/>
      <point x="231" y="708"/>
      <point x="47" y="525"/>
      <point x="47" y="308" type="curve" smooth="yes"/>
      <point x="47" y="123"/>
      <point x="189" y="-14"/>
    </contour>
  </outline>
</glyph>
<glyph name="H" format="2">
  <advance width="733"/>
  <unicode hex="0048"/>
  <anchor x="460" y="700" name="top"/>
  <outline>
    <contour>
      <point x="1" y="0" type="line"/>
      <point x="169" y="0" type="line"/>
      <point x="227" y="274" type="line"/>
      <point x="510" y="274" type="line"/>
      <point x="452" y="0" type="line"/>
      <point x="620" y="0" type="line"/>
      <point x="769" y="700" type="line"/>
      <point x="601" y="700" type="line"/>
      <point x="544" y="431" type="line"/>
      <point x="261" y="431" type="line"/>
      <point x="318" y="700" type="line"/>
      <point x="150" y="700" type="line"/>
    </contour>
  </outline>
</glyph>
<glyph name="K" format="2">
  <advance width="714"/>
  <unicode hex="004B"/>
  <anchor x="289" y="0" name="bottom"/>
  <outline>
    <contour>
      <point x="1" y="0" type="line"/>
      <point x="169" y="0" type="line"/>
      <point x="239" y="327" type="line"/>
      <point x="450" y="0" type="line"/>
      <point x="662" y="0" type="line"/>
      <point x="410" y="364" type="line"/>
      <point x="806" y="700" type="line"/>
      <point x="588" y="700" type="line"/>
      <point x="255" y="406" type="line"/>
      <point x="318" y="700" type="line"/>
      <point x="150" y="700" type="line"/>
    </contour>
  </outline>
</glyph>
<glyph name="O" format="2">
  <advance width="798"/>
  <unicode hex="004F"/>
  <anchor x="450" y="700" name="top"/>
  <outline>
    <contour>
      <point x="392" y="-11" type="curve" smooth="yes"/>
      <point x="608" y="-11"/>
      <point x="785" y="165"/>
      <point x="785" y="380" type="curve" smooth="yes"/>
      <point x="785" y="570"/>
      <point x="639" y="711"/>
      <point x="444" y="711" type="curve" smooth="yes"/>
      <point x="228" y="711"/>
      <point x="51" y="535"/>
      <point x="51" y="320" type="curve" smooth="yes"/>
      <point x="51" y="130"/>
      <point x="197" y="-11"/>
    </contour>
    <contour>
      <point x="403" y="147" type="curve" smooth="yes"/>
      <point x="299" y="147"/>
      <point x="224" y="225"/>
      <point x="224" y="331" type="curve" smooth="yes"/>
      <point x="224" y="454"/>
      <point x="317" y="553"/>
      <point x="433" y="553" type="curve" smooth="yes"/>
      <point x="537" y="553"/>
      <point x="612" y="475"/>
      <point x="612" y="369" type="curve" smooth="yes"/>
      <point x="612" y="246"/>
      <point x="519" y="147"/>
    </contour>
  </outline>
</glyph>
<glyph name="P" format="2">
  <advance width="681"/>
  <unicode hex="0050"/>
  <outline>
    <contour>
      <point x="1" y="0" type="line"/>
      <point x="169" y="0" type="line"/>
      <point x="222" y="251" type="line"/>
      <point x="432" y="251" type="line" smooth="yes"/>
      <point x="579" y="251"/>
      <point x="697" y="359"/>
      <point x="697" y="493" type="curve" smooth="yes"/>
      <point x="697" y="615"/>
      <point x="607" y="700"/>
      <point x="476" y="700" type="curve" smooth="yes"/>
      <point x="150" y="700" type="line"/>
    </contour>
    <contour>
      <point x="253" y="393" type="line"/>
      <point x="287" y="553" type="line"/>
      <point x="446" y="553" type="line" smooth="yes"/>
      <point x="494" y="553"/>
      <point x="525" y="524"/>
      <point x="525" y="479" type="curve" smooth="yes"/>
      <point x="525" y="430"/>
      <point x="484" y="393"/>
      <point x="429" y="393" type="curve" smooth="yes"/>
    </contour>
  </outline>
</glyph>
<glyph name="Q" format="2">
  <advance width="798"/>
  <unicode hex="0051"/>
  <outline>
    <contour>
      <point x="392" y="-11" type="curve" smooth="yes"/>
      <point x="435" y="-11"/>
      <point x="476" y="-4"/>
      <point x="514" y="9" type="curve"/>
      <point x="541" y="-39" type="line"/>
      <point x="694" y="-17" type="line"/>
      <point x="641" y="78" type="line"/>
      <point x="729" y="150"/>
      <point x="785" y="259"/>
      <point x="785" y="380" type="curve" smooth="yes"/>
      <point x="785" y="570"/>
      <point x="639" y="711"/>
      <point x="444" y="711" type="curve" smooth="yes"/>
      <point x="228" y="711"/>
      <point x="51" y="535"/>
      <point x="51" y="320" type="curve" smooth="yes"/>
      <point x="51" y="130"/>
      <point x="197" y="-11"/>
    </contour>
    <contour>
      <point x="403" y="147" type="curve" smooth="yes"/>
      <point x="299" y="147"/>
      <point x="224" y="225"/>
      <point x="224" y="331" type="curve" smooth="yes"/>
      <point x="224" y="454"/>
      <point x="317" y="553"/>
      <point x="433" y="553" type="curve" smooth="yes"/>
      <point x="537" y="553"/>
      <point x="612" y="475"/>
      <point x="612" y="369" type="curve" smooth="yes"/>
      <point x="612" y="312"/>
      <point x="592" y="261"/>
      <point x="559" y="221" type="curve"/>
      <point x="531" y="272" type="line"/>
      <point x="379" y="250" type="line"/>
      <point x="435" y="150" type="line"/>
      <point x="425" y="148"/>
      <point x="414" y="147"/>
    </contour>
  </outline>
</glyph>
<glyph name="R" format="2">
  <advance width="679"/>
  <unicode hex="0052"/>
  <anchor x="425" y="700" name="top"/>
  <anchor x="296" y="0" name="bottom"/>
  <outline>
    <contour>
      <point x="1" y="0" type="line"/>
      <point x="169" y="0" type="line"/>
      <point x="223" y="255" type="line"/>
      <point x="357" y="255" type="line"/>
      <point x="447" y="0" type="line"/>
      <point x="625" y="0" type="line"/>
      <point x="519" y="268" type="line"/>
      <point x="624" y="300"/>
      <point x="697" y="390"/>
      <point x="697" y="497" type="curve" smooth="yes"/>
      <point x="697" y="617"/>
      <point x="607" y="700"/>
      <point x="476" y="700" type="curve" smooth="yes"/>
      <point x="150" y="700" type="line"/>
    </contour>
    <contour>
      <point x="253" y="395" type="line"/>
      <point x="287" y="553" type="line"/>
      <point x="446" y="553" type="line" smooth="yes"/>
      <point x="494" y="553"/>
      <point x="525" y="525"/>
      <point x="525" y="481" type="curve" smooth="yes"/>
      <point x="525" y="432"/>
      <point x="484" y="395"/>
      <point x="428" y="395" type="curve" smooth="yes"/>
    </contour>
  </outline>
</glyph>
<glyph name="S" format="2">
  <advance width="631"/>
  <unicode hex="0053"/>
  <note>
Version created Fri Aug  3 17:49:29 2018
</note>
  <anchor x="350" y="700" name="top"/>
  <anchor x="301" y="0" name="bottom"/>
  <outline>
    <contour>
      <point x="314" y="-10" type="curve" smooth="yes"/>
      <point x="492" y="-10"/>
      <point x="608" y="84"/>
      <point x="608" y="229" type="curve" smooth="yes"/>
      <point x="608" y="321"/>
      <point x="547" y="385"/>
      <point x="433" y="412" type="curve" smooth="yes"/>
      <point x="296" y="445" type="line" smooth="yes"/>
      <point x="242" y="459"/>
      <point x="221" y="476"/>
      <point x="221" y="505" type="curve" smooth="yes"/>
      <point x="221" y="543"/>
      <point x="259" y="567"/>
      <point x="321" y="567" type="curve" smooth="yes"/>
      <point x="402" y="567"/>
      <point x="471" y="536"/>
      <point x="539" y="469" type="curve"/>
      <point x="645" y="589" type="line"/>
      <point x="568" y="665"/>
      <point x="453" y="710"/>
      <point x="336" y="710" type="curve" smooth="yes"/>
      <point x="166" y="710"/>
      <point x="60" y="624"/>
      <point x="60" y="485" type="curve" smooth="yes"/>
      <point x="60" y="396"/>
      <point x="112" y="334"/>
      <point x="209" y="308" type="curve" smooth="yes"/>
      <point x="355" y="270" type="line" smooth="yes"/>
      <point x="416" y="254"/>
      <point x="440" y="236"/>
      <point x="440" y="205" type="curve" smooth="yes"/>
      <point x="440" y="160"/>
      <point x="398" y="133"/>
      <point x="328" y="133" type="curve" smooth="yes"/>
      <point x="242" y="133"/>
      <point x="170" y="168"/>
      <point x="94" y="247" type="curve"/>
      <point x="-16" y="129" type="line"/>
      <point x="67" y="39"/>
      <point x="183" y="-10"/>
    </contour>
  </outline>
</glyph>
<glyph name="T" format="2">
  <advance width="653"/>
  <unicode hex="0054"/>
  <anchor x="419" y="700" name="top"/>
  <anchor x="270" y="0" name="bottom"/>
  <outline>
    <contour>
      <point x="186" y="0" type="line"/>
      <point x="355" y="0" type="line"/>
      <point x="472" y="548" type="line"/>
      <point x="695" y="548" type="line"/>
      <point x="728" y="700" type="line"/>
      <point x="111" y="700" type="line"/>
      <point x="78" y="548" type="line"/>
      <point x="303" y="548" type="line"/>
    </contour>
  </outline>
</glyph>
<glyph name="U" format="2">
  <advance width="718"/>
  <unicode hex="0055"/>
  <anchor x="444" y="700" name="top"/>
  <anchor x="419" y="0" name="bottom"/>
  <outline>
    <contour>
      <point x="334" y="-9" type="curve" smooth="yes"/>
      <point x="508" y="-9"/>
      <point x="635" y="97"/>
      <point x="673" y="273" type="curve" smooth="yes"/>
      <point x="764" y="700" type="line"/>
      <point x="596" y="700" type="line"/>
      <point x="509" y="290" type="line" smooth="yes"/>
      <point x="492" y="206"/>
      <point x="426" y="149"/>
      <point x="346" y="149" type="curve" smooth="yes"/>
      <point x="253" y="149"/>
      <point x="206" y="216"/>
      <point x="228" y="320" type="curve" smooth="yes"/>
      <point x="309" y="700" type="line"/>
      <point x="140" y="700" type="line"/>
      <point x="63" y="338" type="line" smooth="yes"/>
      <point x="19" y="131"/>
      <point x="128" y="-9"/>
    </contour>
  </outline>
</glyph>
<glyph name="W" format="2">
  <advance width="950"/>
  <unicode hex="0057"/>
  <anchor x="566" y="700" name="top"/>
  <outline>
    <contour>
      <point x="120" y="0" type="line"/>
      <point x="298" y="0" type="line"/>
      <point x="514" y="447" type="line"/>
      <point x="540" y="0" type="line"/>
      <point x="719" y="0" type="line"/>
      <point x="1020" y="700" type="line"/>
      <point x="847" y="700" type="line"/>
      <point x="672" y="269" type="line"/>
      <point x="644" y="700" type="line"/>
      <point x="486" y="700" type="line"/>
      <point x="275" y="267" type="line"/>
      <point x="283" y="700" type="line"/>
      <point x="116" y="700" type="line"/>
    </contour>
  </outline>
</glyph>
<glyph name="X" format="2">
  <advance width="710"/>
  <unicode hex="0058"/>
  <outline>
    <contour>
      <point x="-61" y="0" type="line"/>
      <point x="142" y="0" type="line"/>
      <point x="354" y="234" type="line"/>
      <point x="469" y="0" type="line"/>
      <point x="659" y="0" type="line"/>
      <point x="476" y="357" type="line"/>
      <point x="799" y="700" type="line"/>
      <point x="595" y="700" type="line"/>
      <point x="404" y="489" type="line"/>
      <point x="301" y="700" type="line"/>
      <point x="111" y="700" type="line"/>
      <point x="283" y="365" type="line"/>
    </contour>
  </outline>
</glyph>
<glyph name="Y" format="2">
  <advance width="717"/>
  <unicode hex="0059"/>
  <anchor x="444" y="700" name="top"/>
  <outline>
    <contour>
      <point x="218" y="0" type="line"/>
      <point x="387" y="0" type="line"/>
      <point x="442" y="260" type="line"/>
      <point x="820" y="700" type="line"/>
      <point x="622" y="700" type="line"/>
      <point x="383" y="413" type="line"/>
      <point x="262" y="700" type="line"/>
      <point x="83" y="700" type="line"/>
      <point x="273" y="262" type="line"/>
    </contour>
  </outline>
</glyph>
<glyph name="bracketleft" format="2">
  <advance width="404"/>
  <unicode hex="005B"/>
  <outline>
    <contour>
      <point x="-47" y="-215" type="line"/>
      <point x="265" y="-215" type="line"/>
      <point x="292" y="-89" type="line"/>
      <point x="130" y="-89" type="line"/>
      <point x="271" y="574" type="line"/>
      <point x="433" y="574" type="line"/>
      <point x="460" y="700" type="line"/>
      <point x="148" y="700" type="line"/>
    </contour>
  </outline>
</glyph>
<glyph name="bracketright" format="2">
  <advance width="404"/>
  <unicode hex="005D"/>
  <outline>
    <contour>
      <point x="442" y="700" type="line"/>
      <point x="130" y="700" type="line"/>
      <point x="103" y="574" type="line"/>
      <point x="265" y="574" type="line"/>
      <point x="124" y="-89" type="line"/>
      <point x="-38" y="-89" type="line"/>
      <point x="-65" y="-215" type="line"/>
      <point x="247" y="-215" type="line"/>
    </contour>
  </outline>
</glyph>
<glyph name="a" format="2">
  <advance width="561"/>
  <unicode hex="0061"/>
  <note>
Version created Mon Aug  6 16:22:34 2018
</note>
  <anchor x="301" y="529" name="top"/>
  <anchor x="460" y="0" name="bottom"/>
  <outline>
    <contour>
      <point x="185" y="-5" type="curve" smooth="yes"/>
      <point x="229" y="-5"/>
      <point x="268" y="5"/>
      <point x="309" y="29" type="curve"/>
      <point x="303" y="0" type="line"/>
      <point x="460" y="0" type="line"/>
      <point x="526" y="312" type="line" smooth="yes"/>
      <point x="555" y="453"/>
      <point x="472" y="538"/>
      <point x="304" y="538" type="curve" smooth="yes"/>
      <point x="238" y="538"/>
      <point x="165" y="523"/>
      <point x="84" y="493" type="curve"/>
      <point x="122" y="373" type="line"/>
      <point x="188" y="395"/>
      <point x="232" y="405"/>
      <point x="268" y="405" type="curve" smooth="yes"/>
      <point x="348" y="405"/>
      <point x="382" y="374"/>
      <point x="369" y="311" type="curve" smooth="yes"/>
      <point x="366" y="296" type="line"/>
      <point x="323" y="309"/>
      <point x="276" y="317"/>
      <point x="231" y="317" type="curve" smooth="yes"/>
      <point x="90" y="317"/>
      <point x="6" y="251"/>
      <point x="6" y="142" type="curve" smooth="yes"/>
      <point x="6" y="52"/>
      <point x="75" y="-5"/>
    </contour>
    <contour>
      <point x="242" y="107" type="curve" smooth="yes"/>
      <point x="188" y="107"/>
      <point x="156" y="125"/>
      <point x="156" y="155" type="curve" smooth="yes"/>
      <point x="156" y="192"/>
      <point x="188" y="213"/>
      <point x="246" y="213" type="curve" smooth="yes"/>
      <point x="278" y="213"/>
      <point x="314" y="207"/>
      <point x="345" y="197" type="curve"/>
      <point x="330" y="128" type="line"/>
      <point x="303" y="114"/>
      <point x="274" y="107"/>
    </contour>
  </outline>
</glyph>
<glyph name="b" format="2">
  <advance width="635"/>
  <unicode hex="0062"/>
  <outline>
    <contour>
      <point x="313" y="-7" type="curve" smooth="yes"/>
      <point x="477" y="-7"/>
      <point x="609" y="125"/>
      <point x="609" y="290" type="curve" smooth="yes"/>
      <point x="609" y="429"/>
      <point x="506" y="536"/>
      <point x="373" y="536" type="curve" smooth="yes"/>
      <point x="333" y="536"/>
      <point x="295" y="526"/>
      <point x="260" y="508" type="curve"/>
      <point x="308" y="735" type="line"/>
      <point x="142" y="700" type="line"/>
      <point x="-7" y="0" type="line"/>
      <point x="150" y="0" type="line"/>
      <point x="160" y="47" type="line"/>
      <point x="201" y="12"/>
      <point x="253" y="-7"/>
    </contour>
    <contour>
      <point x="307" y="131" type="curve" smooth="yes"/>
      <point x="259" y="131"/>
      <point x="216" y="150"/>
      <point x="190" y="182" type="curve"/>
      <point x="229" y="364" type="line"/>
      <point x="258" y="388"/>
      <point x="291" y="399"/>
      <point x="329" y="399" type="curve" smooth="yes"/>
      <point x="401" y="399"/>
      <point x="454" y="346"/>
      <point x="454" y="276" type="curve" smooth="yes"/>
      <point x="454" y="195"/>
      <point x="390" y="131"/>
    </contour>
  </outline>
</glyph>
<glyph name="c" format="2">
  <advance width="528"/>
  <unicode hex="0063"/>
  <anchor x="323" y="529" name="top"/>
  <anchor x="282" y="0" name="bottom"/>
  <outline>
    <contour>
      <point x="280" y="-11" type="curve" smooth="yes"/>
      <point x="358" y="-11"/>
      <point x="431" y="19"/>
      <point x="490" y="75" type="curve"/>
      <point x="408" y="180" type="line"/>
      <point x="372" y="145"/>
      <point x="338" y="129"/>
      <point x="297" y="129" type="curve" smooth="yes"/>
      <point x="228" y="129"/>
      <point x="182" y="177"/>
      <point x="182" y="249" type="curve" smooth="yes"/>
      <point x="182" y="331"/>
      <point x="241" y="398"/>
      <point x="314" y="398" type="curve" smooth="yes"/>
      <point x="363" y="398"/>
      <point x="400" y="377"/>
      <point x="430" y="331" type="curve"/>
      <point x="538" y="429" type="line"/>
      <point x="490" y="498"/>
      <point x="408" y="539"/>
      <point x="316" y="539" type="curve" smooth="yes"/>
      <point x="154" y="539"/>
      <point x="24" y="406"/>
      <point x="24" y="240" type="curve" smooth="yes"/>
      <point x="24" y="95"/>
      <point x="133" y="-11"/>
    </contour>
  </outline>
</glyph>
<glyph name="e" format="2">
  <advance width="586"/>
  <unicode hex="0065"/>
  <anchor x="318" y="529" name="top"/>
  <anchor x="384" y="0" name="bottom"/>
  <outline>
    <contour>
      <point x="296" y="-11" type="curve" smooth="yes"/>
      <point x="376" y="-11"/>
      <point x="436" y="9"/>
      <point x="503" y="58" type="curve"/>
      <point x="414" y="159" type="line"/>
      <point x="387" y="135"/>
      <point x="351" y="122"/>
      <point x="309" y="122" type="curve" smooth="yes"/>
      <point x="245" y="122"/>
      <point x="198" y="157"/>
      <point x="182" y="210" type="curve"/>
      <point x="552" y="210" type="line"/>
      <point x="557" y="251"/>
      <point x="558" y="265"/>
      <point x="558" y="280" type="curve" smooth="yes"/>
      <point x="558" y="431"/>
      <point x="458" y="537"/>
      <point x="314" y="537" type="curve" smooth="yes"/>
      <point x="155" y="537"/>
      <point x="24" y="403"/>
      <point x="24" y="242" type="curve" smooth="yes"/>
      <point x="24" y="95"/>
      <point x="138" y="-11"/>
    </contour>
    <contour>
      <point x="191" y="322" type="line"/>
      <point x="213" y="371"/>
      <point x="255" y="404"/>
      <point x="307" y="404" type="curve" smooth="yes"/>
      <point x="357" y="404"/>
      <point x="395" y="372"/>
      <point x="409" y="322" type="curve"/>
    </contour>
  </outline>
</glyph>
<glyph name="g" format="2">
  <advance width="634"/>
  <unicode hex="0067"/>
  <note>
Version created Sun Jan 13 16:53:00 2019
</note>
  <anchor x="346" y="529" name="top"/>
  <outline>
    <contour>
      <point x="267" y="-214" type="curve" smooth="yes"/>
      <point x="408" y="-214"/>
      <point x="498" y="-145"/>
      <point x="525" y="-18" type="curve" smooth="yes"/>
      <point x="640" y="529" type="line"/>
      <point x="482" y="529" type="line"/>
      <point x="474" y="489" type="line"/>
      <point x="434" y="519"/>
      <point x="382" y="536"/>
      <point x="323" y="536" type="curve" smooth="yes"/>
      <point x="160" y="536"/>
      <point x="29" y="405"/>
      <point x="29" y="242" type="curve" smooth="yes"/>
      <point x="29" y="103"/>
      <point x="130" y="-2"/>
      <point x="263" y="-2" type="curve" smooth="yes"/>
      <point x="302" y="-2"/>
      <point x="340" y="7"/>
      <point x="374" y="25" type="curve"/>
      <point x="369" y="0" type="line" smooth="yes"/>
      <point x="358" y="-54"/>
      <point x="322" y="-80"/>
      <point x="263" y="-80" type="curve" smooth="yes"/>
      <point x="206" y="-80"/>
      <point x="142" y="-59"/>
      <point x="84" y="-22" type="curve"/>
      <point x="12" y="-142" type="line"/>
      <point x="80" y="-187"/>
      <point x="176" y="-214"/>
    </contour>
    <contour>
      <point x="307" y="133" type="curve" smooth="yes"/>
      <point x="236" y="133"/>
      <point x="185" y="185"/>
      <point x="185" y="256" type="curve" smooth="yes"/>
      <point x="185" y="335"/>
      <point x="248" y="398"/>
      <point x="329" y="398" type="curve" smooth="yes"/>
      <point x="374" y="398"/>
      <point x="416" y="381"/>
      <point x="444" y="354" type="curve"/>
      <point x="404" y="165" type="line"/>
      <point x="376" y="144"/>
      <point x="344" y="133"/>
    </contour>
  </outline>
</glyph>
<glyph name="j" format="2">
  <advance width="257"/>
  <unicode hex="006A"/>
  <outline>
    <contour>
      <point x="204" y="578" type="curve" smooth="yes"/>
      <point x="256" y="578"/>
      <point x="302" y="624"/>
      <point x="302" y="678" type="curve" smooth="yes"/>
      <point x="302" y="722"/>
      <point x="268" y="756"/>
      <point x="224" y="756" type="curve" smooth="yes"/>
      <point x="172" y="756"/>
      <point x="126" y="710"/>
      <point x="126" y="656" type="curve" smooth="yes"/>
      <point x="126" y="612"/>
      <point x="160" y="578"/>
    </contour>
    <contour>
      <point x="-59" y="-218" type="curve" smooth="yes"/>
      <point x="46" y="-218"/>
      <point x="117" y="-162"/>
      <point x="139" y="-61" type="curve" smooth="yes"/>
      <point x="265" y="529" type="line"/>
      <point x="105" y="529" type="line"/>
      <point x="-17" y="-44" type="line" smooth="yes"/>
      <point x="-23" y="-74"/>
      <point x="-41" y="-88"/>
      <point x="-72" y="-88" type="curve" smooth="yes"/>
      <point x="-96" y="-88"/>
      <point x="-110" y="-86"/>
      <point x="-126" y="-82" type="curve"/>
      <point x="-152" y="-203" type="line"/>
      <point x="-132" y="-211"/>
      <point x="-89" y="-218"/>
    </contour>
  </outline>
</glyph>
<glyph name="l" format="2">
  <advance width="257"/>
  <unicode hex="006C"/>
  <anchor x="221" y="700" name="top"/>
  <anchor x="72" y="0" name="bottom"/>
  <outline>
    <contour>
      <point x="-7" y="0" type="line"/>
      <point x="152" y="0" type="line"/>
      <point x="308" y="735" type="line"/>
      <point x="142" y="700" type="line"/>
    </contour>
  </outline>
</glyph>
<glyph name="o" format="2">
  <advance width="617"/>
  <unicode hex="006F"/>
  <anchor x="335" y="529" name="top"/>
  <outline>
    <contour>
      <point x="292" y="-10" type="curve" smooth="yes"/>
      <point x="455" y="-10"/>
      <point x="591" y="124"/>
      <point x="591" y="284" type="curve" smooth="yes"/>
      <point x="591" y="429"/>
      <point x="477" y="539"/>
      <point x="326" y="539" type="curve" smooth="yes"/>
      <point x="162" y="539"/>
      <point x="26" y="406"/>
      <point x="26" y="245" type="curve" smooth="yes"/>
      <point x="26" y="100"/>
      <point x="140" y="-10"/>
    </contour>
    <contour>
      <point x="299" y="130" type="curve" smooth="yes"/>
      <point x="231" y="130"/>
      <point x="182" y="181"/>
      <point x="182" y="252" type="curve" smooth="yes"/>
      <point x="182" y="333"/>
      <point x="243" y="399"/>
      <point x="318" y="399" type="curve" smooth="yes"/>
      <point x="386" y="399"/>
      <point x="435" y="348"/>
      <point x="435" y="277" type="curve" smooth="yes"/>
      <point x="435" y="196"/>
      <point x="374" y="130"/>
    </contour>
  </outline>
</glyph>
<glyph name="p" format="2">
  <advance width="635"/>
  <unicode hex="0070"/>
  <outline>
    <contour>
      <point x="-51" y="-204" type="line"/>
      <point x="108" y="-204" type="line"/>
      <point x="162" y="45" type="line"/>
      <point x="202" y="11"/>
      <point x="254" y="-7"/>
      <point x="313" y="-7" type="curve" smooth="yes"/>
      <point x="477" y="-7"/>
      <point x="609" y="125"/>
      <point x="609" y="290" type="curve" smooth="yes"/>
      <point x="609" y="429"/>
      <point x="506" y="536"/>
      <point x="373" y="536" type="curve" smooth="yes"/>
      <point x="332" y="536"/>
      <point x="293" y="526"/>
      <point x="257" y="506" type="curve"/>
      <point x="262" y="529" type="line"/>
      <point x="105" y="529" type="line"/>
    </contour>
    <contour>
      <point x="307" y="131" type="curve" smooth="yes"/>
      <point x="259" y="131"/>
      <point x="217" y="150"/>
      <point x="191" y="181" type="curve"/>
      <point x="230" y="365" type="line"/>
      <point x="258" y="388"/>
      <point x="291" y="399"/>
      <point x="329" y="399" type="curve" smooth="yes"/>
      <point x="401" y="399"/>
      <point x="454" y="346"/>
      <point x="454" y="276" type="curve" smooth="yes"/>
      <point x="454" y="195"/>
      <point x="390" y="131"/>
    </contour>
  </outline>
</glyph>
<glyph name="r" format="2">
  <advance width="423"/>
  <unicode hex="0072"/>
  <anchor x="296" y="529" name="top"/>
  <anchor x="72" y="0" name="bottom"/>
  <outline>
    <contour>
      <point x="-7" y="0" type="line"/>
      <point x="152" y="0" type="line"/>
      <point x="224" y="342" type="line"/>
      <point x="256" y="380"/>
      <point x="301" y="402"/>
      <point x="349" y="402" type="curve" smooth="yes"/>
      <point x="378" y="402"/>
      <point x="416" y="393"/>
      <point x="430" y="382" type="curve"/>
      <point x="459" y="522" type="line"/>
      <point x="445" y="533"/>
      <point x="420" y="539"/>
      <point x="390" y="539" type="curve" smooth="yes"/>
      <point x="339" y="539"/>
      <point x="293" y="519"/>
      <point x="254" y="482" type="curve"/>
      <point x="264" y="529" type="line"/>
      <point x="105" y="529" type="line"/>
    </contour>
  </outline>
</glyph>
<glyph name="t" format="2">
  <advance width="439"/>
  <unicode hex="0074"/>
  <anchor x="241" y="0" name="bottom"/>
  <outline>
    <contour>
      <point x="263" y="-6" type="curve" smooth="yes"/>
      <point x="296" y="-6"/>
      <point x="341" y="-1"/>
      <point x="366" y="5" type="curve"/>
      <point x="394" y="135" type="line"/>
      <point x="370" y="129"/>
      <point x="351" y="127"/>
      <point x="328" y="127" type="curve" smooth="yes"/>
      <point x="274" y="127"/>
      <point x="256" y="147"/>
      <point x="266" y="195" type="curve" smooth="yes"/>
      <point x="309" y="394" type="line"/>
      <point x="454" y="394" type="line"/>
      <point x="482" y="529" type="line"/>
      <point x="337" y="529" type="line"/>
      <point x="374" y="700" type="line"/>
      <point x="208" y="665" type="line"/>
      <point x="179" y="529" type="line"/>
      <point x="74" y="529" type="line"/>
      <point x="46" y="394" type="line"/>
      <point x="151" y="394" type="line"/>
      <point x="103" y="170" type="line" smooth="yes"/>
      <point x="79" y="57"/>
      <point x="136" y="-6"/>
    </contour>
  </outline>
</glyph>
<glyph name="v" format="2">
  <advance width="594"/>
  <unicode hex="0076"/>
  <outline>
    <contour>
      <point x="164" y="0" type="line"/>
      <point x="318" y="0" type="line"/>
      <point x="652" y="529" type="line"/>
      <point x="479" y="529" type="line"/>
      <point x="282" y="205" type="line"/>
      <point x="223" y="529" type="line"/>
      <point x="54" y="529" type="line"/>
    </contour>
  </outline>
</glyph>
<glyph name="y" format="2">
  <advance width="591"/>
  <unicode hex="0079"/>
  <anchor x="348" y="529" name="top"/>
  <outline>
    <contour>
      <point x="33" y="-214" type="curve" smooth="yes"/>
      <point x="141" y="-214"/>
      <point x="214" y="-168"/>
      <point x="285" y="-55" type="curve" smooth="yes"/>
      <point x="652" y="529" type="line"/>
      <point x="479" y="529" type="line"/>
      <point x="269" y="183" type="line"/>
      <point x="223" y="529" type="line"/>
      <point x="54" y="529" type="line"/>
      <point x="141" y="0" type="line"/>
      <point x="135" y="-10" type="line" smooth="yes"/>
      <point x="109" y="-53"/>
      <point x="72" y="-72"/>
      <point x="24" y="-72" type="curve" smooth="yes"/>
      <point x="3" y="-72"/>
      <point x="-14" y="-70"/>
      <point x="-27" y="-66" type="curve"/>
      <point x="-56" y="-203" type="line"/>
      <point x="-29" y="-210"/>
      <point x="0" y="-214"/>
    </contour>
  </outline>
</glyph>
<glyph name="z" format="2">
  <advance width="504"/>
  <unicode hex="007A"/>
  <anchor x="295" y="529" name="top"/>
  <outline>
    <contour>
      <point x="-31" y="0" type="line"/>
      <point x="423" y="0" type="line"/>
      <point x="452" y="135" type="line"/>
      <point x="210" y="135" type="line"/>
      <point x="503" y="416" type="line"/>
      <point x="527" y="529" type="line"/>
      <point x="82" y="529" type="line"/>
      <point x="54" y="394" type="line"/>
      <point x="285" y="394" type="line"/>
      <point x="-7" y="113" type="line"/>
    </contour>
  </outline>
</glyph>
<glyph name="braceleft" format="2">
  <advance width="439"/>
  <unicode hex="007B"/>
  <outline>
    <contour>
      <point x="208" y="-221" type="curve" smooth="yes"/>
      <point x="237" y="-221"/>
      <point x="267" y="-218"/>
      <point x="301" y="-209" type="curve"/>
      <point x="303" y="-93" type="line"/>
      <point x="288" y="-98"/>
      <point x="271" y="-101"/>
      <point x="254" y="-101" type="curve" smooth="yes"/>
      <point x="208" y="-101"/>
      <point x="173" y="-72"/>
      <point x="212" y="-8" type="curve" smooth="yes"/>
      <point x="261" y="73" type="line" smooth="yes"/>
      <point x="311" y="156"/>
      <point x="267" y="219"/>
      <point x="189" y="239" type="curve"/>
      <point x="269" y="252"/>
      <point x="334" y="311"/>
      <point x="323" y="395" type="curve" smooth="yes"/>
      <point x="310" y="491" type="line" smooth="yes"/>
      <point x="301" y="556"/>
      <point x="340" y="588"/>
      <point x="383" y="588" type="curve" smooth="yes"/>
      <point x="398" y="588"/>
      <point x="425" y="582"/>
      <point x="444" y="573" type="curve"/>
      <point x="490" y="687" type="line"/>
      <point x="450" y="705"/>
      <point x="412" y="710"/>
      <point x="372" y="710" type="curve" smooth="yes"/>
      <point x="243" y="710"/>
      <point x="157" y="619"/>
      <point x="175" y="498" type="curve" smooth="yes"/>
      <point x="189" y="406" type="line" smooth="yes"/>
      <point x="198" y="347"/>
      <point x="162" y="303"/>
      <point x="102" y="303" type="curve" smooth="yes"/>
      <point x="18" y="303" type="line"/>
      <point x="-7" y="185" type="line"/>
      <point x="77" y="185" type="line" smooth="yes"/>
      <point x="141" y="185"/>
      <point x="155" y="132"/>
      <point x="120" y="77" type="curve" smooth="yes"/>
      <point x="71" y="0" type="line" smooth="yes"/>
      <point x="0" y="-112"/>
      <point x="50" y="-221"/>
    </contour>
  </outline>
</glyph>
<glyph name="bar" format="2">
  <advance width="338"/>
  <unicode hex="007C"/>
  <outline>
    <contour>
      <point x="-6" y="-214" type="line"/>
      <point x="142" y="-214" type="line"/>
      <point x="336" y="700" type="line"/>
      <point x="188" y="700" type="line"/>
    </contour>
  </outline>
</glyph>
<glyph name="braceright" format="2">
  <advance width="439"/>
  <unicode hex="007D"/>
  <outline>
    <contour>
      <point x="222" y="710" type="curve" smooth="yes"/>
      <point x="193" y="710"/>
      <point x="163" y="707"/>
      <point x="129" y="698" type="curve"/>
      <point x="127" y="582" type="line"/>
      <point x="142" y="587"/>
      <point x="159" y="590"/>
      <point x="176" y="590" type="curve" smooth="yes"/>
      <point x="222" y="590"/>
      <point x="257" y="561"/>
      <point x="218" y="497" type="curve" smooth="yes"/>
      <point x="169" y="416" type="line" smooth="yes"/>
      <point x="119" y="333"/>
      <point x="163" y="270"/>
      <point x="241" y="250" type="curve"/>
      <point x="161" y="237"/>
      <point x="96" y="178"/>
      <point x="107" y="94" type="curve" smooth="yes"/>
      <point x="120" y="-2" type="line" smooth="yes"/>
      <point x="129" y="-67"/>
      <point x="90" y="-99"/>
      <point x="47" y="-99" type="curve" smooth="yes"/>
      <point x="32" y="-99"/>
      <point x="5" y="-93"/>
      <point x="-14" y="-84" type="curve"/>
      <point x="-60" y="-198" type="line"/>
      <point x="-20" y="-216"/>
      <point x="18" y="-221"/>
      <point x="58" y="-221" type="curve" smooth="yes"/>
      <point x="187" y="-221"/>
      <point x="273" y="-130"/>
      <point x="255" y="-9" type="curve" smooth="yes"/>
      <point x="241" y="83" type="line" smooth="yes"/>
      <point x="232" y="142"/>
      <point x="268" y="186"/>
      <point x="328" y="186" type="curve" smooth="yes"/>
      <point x="412" y="186" type="line"/>
      <point x="437" y="304" type="line"/>
      <point x="353" y="304" type="line" smooth="yes"/>
      <point x="289" y="304"/>
      <point x="275" y="357"/>
      <point x="310" y="412" type="curve" smooth="yes"/>
      <point x="359" y="489" type="line" smooth="yes"/>
      <point x="430" y="601"/>
      <point x="380" y="710"/>
    </contour>
  </outline>
</glyph>
<glyph name="asciitilde" format="2">
  <advance width="600"/>
  <unicode hex="007E"/>
  <outline>
    <contour>
      <point x="150" y="291" type="line"/>
      <point x="166" y="336"/>
      <point x="187" y="358"/>
      <point x="215" y="358" type="curve" smooth="yes"/>
      <point x="230" y="358"/>
      <point x="247" y="352"/>
      <point x="272" y="336" type="curve" smooth="yes"/>
      <point x="342" y="293" type="line" smooth="yes"/>
      <point x="374" y="273"/>
      <point x="412" y="261"/>
      <point x="442" y="261" type="curve" smooth="yes"/>
      <point x="512" y="261"/>
      <point x="570" y="319"/>
      <point x="605" y="425" type="curve"/>
      <point x="501" y="449" type="line"/>
      <point x="484" y="402"/>
      <point x="464" y="381"/>
      <point x="436" y="381" type="curve" smooth="yes"/>
      <point x="421" y="381"/>
      <point x="403" y="388"/>
      <point x="379" y="403" type="curve" smooth="yes"/>
      <point x="309" y="446" type="line" smooth="yes"/>
      <point x="275" y="466"/>
      <point x="238" y="478"/>
      <point x="208" y="478" type="curve" smooth="yes"/>
      <point x="138" y="478"/>
      <point x="81" y="420"/>
      <point x="47" y="314" type="curve"/>
    </contour>
  </outline>
</glyph>
<glyph name="exclamdown" format="2">
  <advance width="251"/>
  <unicode hex="00A1"/>
  <outline>
    <contour>
      <point x="189" y="279" type="line"/>
      <point x="68" y="279" type="line"/>
      <point x="-54" y="-205" type="line"/>
      <point x="107" y="-205" type="line"/>
    </contour>
    <contour>
      <point x="168" y="506" type="curve" smooth="yes"/>
      <point x="114" y="506"/>
      <point x="66" y="457"/>
      <point x="66" y="402" type="curve" smooth="yes"/>
      <point x="66" y="356"/>
      <point x="100" y="321"/>
      <point x="146" y="321" type="curve" smooth="yes"/>
      <point x="202" y="321"/>
      <point x="250" y="369"/>
      <point x="250" y="425" type="curve" smooth="yes"/>
      <point x="250" y="471"/>
      <point x="215" y="506"/>
    </contour>
  </outline>
</glyph>
<glyph name="sterling" format="2">
  <advance width="658"/>
  <unicode hex="00A3"/>
  <outline>
    <contour>
      <point x="430" y="-32" type="curve" smooth="yes"/>
      <point x="501" y="-32"/>
      <point x="558" y="1"/>
      <point x="612" y="70" type="curve"/>
      <point x="510" y="149" type="line"/>
      <point x="482" y="113"/>
      <point x="454" y="97"/>
      <point x="421" y="97" type="curve" smooth="yes"/>
      <point x="409" y="97"/>
      <point x="396" y="99"/>
      <point x="382" y="103" type="curve" smooth="yes"/>
      <point x="249" y="144" type="line"/>
      <point x="282" y="171"/>
      <point x="300" y="211"/>
      <point x="300" y="261" type="curve" smooth="yes"/>
      <point x="300" y="275" type="line"/>
      <point x="452" y="275" type="line"/>
      <point x="474" y="377" type="line"/>
      <point x="299" y="377" type="line"/>
      <point x="298" y="456" type="line" smooth="yes"/>
      <point x="298" y="531"/>
      <point x="343" y="580"/>
      <point x="412" y="580" type="curve" smooth="yes"/>
      <point x="478" y="580"/>
      <point x="517" y="546"/>
      <point x="529" y="476" type="curve"/>
      <point x="664" y="513" type="line"/>
      <point x="640" y="642"/>
      <point x="553" y="711"/>
      <point x="415" y="711" type="curve" smooth="yes"/>
      <point x="262" y="711"/>
      <point x="150" y="601"/>
      <point x="150" y="452" type="curve" smooth="yes"/>
      <point x="150" y="377" type="line"/>
      <point x="76" y="377" type="line"/>
      <point x="54" y="275" type="line"/>
      <point x="151" y="275" type="line"/>
      <point x="151" y="218" type="line" smooth="yes"/>
      <point x="151" y="194"/>
      <point x="142" y="176"/>
      <point x="125" y="164" type="curve"/>
      <point x="60" y="160"/>
      <point x="5" y="127"/>
      <point x="-43" y="63" type="curve"/>
      <point x="61" y="-23" type="line"/>
      <point x="91" y="16"/>
      <point x="120" y="34"/>
      <point x="155" y="34" type="curve" smooth="yes"/>
      <point x="166" y="34"/>
      <point x="178" y="32"/>
      <point x="191" y="28" type="curve" smooth="yes"/>
      <point x="338" y="-17" type="line" smooth="yes"/>
      <point x="371" y="-27"/>
      <point x="402" y="-32"/>
    </contour>
  </outline>
</glyph>
<glyph name="yen" format="2">
  <advance width="723"/>
  <unicode hex="00A5"/>
  <outline>
    <contour>
      <point x="218" y="0" type="line"/>
      <point x="387" y="0" type="line"/>
      <point x="414" y="129" type="line"/>
      <point x="582" y="129" type="line"/>
      <point x="599" y="210" type="line"/>
      <point x="431" y="210" type="line"/>
      <point x="443" y="263" type="line"/>
      <point x="611" y="263" type="line"/>
      <point x="628" y="344" type="line"/>
      <point x="509" y="344" type="line"/>
      <point x="820" y="700" type="line"/>
      <point x="622" y="700" type="line"/>
      <point x="383" y="413" type="line"/>
      <point x="262" y="700" type="line"/>
      <point x="83" y="700" type="line"/>
      <point x="243" y="344" type="line"/>
      <point x="123" y="344" type="line"/>
      <point x="106" y="263" type="line"/>
      <point x="273" y="263" type="line"/>
      <point x="262" y="210" type="line"/>
      <point x="94" y="210" type="line"/>
      <point x="77" y="129" type="line"/>
      <point x="245" y="129" type="line"/>
    </contour>
  </outline>
</glyph>
<glyph name="section" format="2">
  <advance width="572"/>
  <unicode hex="00A7"/>
  <outline>
    <contour>
      <point x="242" y="-53" type="curve" smooth="yes"/>
      <point x="361" y="-53"/>
      <point x="448" y="18"/>
      <point x="448" y="116" type="curve" smooth="yes"/>
      <point x="448" y="137"/>
      <point x="444" y="155"/>
      <point x="435" y="171" type="curve"/>
      <point x="511" y="196"/>
      <point x="557" y="254"/>
      <point x="557" y="332" type="curve" smooth="yes"/>
      <point x="557" y="386"/>
      <point x="524" y="422"/>
      <point x="434" y="467" type="curve" smooth="yes"/>
      <point x="336" y="516" type="line" smooth="yes"/>
      <point x="310" y="529"/>
      <point x="300" y="542"/>
      <point x="300" y="560" type="curve" smooth="yes"/>
      <point x="300" y="586"/>
      <point x="325" y="606"/>
      <point x="358" y="606" type="curve" smooth="yes"/>
      <point x="400" y="606"/>
      <point x="453" y="583"/>
      <point x="505" y="540" type="curve"/>
      <point x="585" y="627" type="line"/>
      <point x="520" y="681"/>
      <point x="442" y="709"/>
      <point x="360" y="709" type="curve" smooth="yes"/>
      <point x="242" y="709"/>
      <point x="156" y="638"/>
      <point x="156" y="540" type="curve" smooth="yes"/>
      <point x="156" y="519"/>
      <point x="160" y="501"/>
      <point x="168" y="485" type="curve"/>
      <point x="93" y="461"/>
      <point x="47" y="403"/>
      <point x="47" y="325" type="curve" smooth="yes"/>
      <point x="47" y="270"/>
      <point x="80" y="233"/>
      <point x="168" y="189" type="curve" smooth="yes"/>
      <point x="266" y="140" type="line" smooth="yes"/>
      <point x="292" y="127"/>
      <point x="302" y="114"/>
      <point x="302" y="96" type="curve" smooth="yes"/>
      <point x="302" y="70"/>
      <point x="277" y="50"/>
      <point x="244" y="50" type="curve" smooth="yes"/>
      <point x="202" y="50"/>
      <point x="149" y="73"/>
      <point x="97" y="116" type="curve"/>
      <point x="17" y="29" type="line"/>
      <point x="82" y="-25"/>
      <point x="160" y="-53"/>
    </contour>
    <contour>
      <point x="353" y="241" type="curve"/>
      <point x="227" y="300" type="line" smooth="yes"/>
      <point x="193" y="316"/>
      <point x="180" y="333"/>
      <point x="180" y="354" type="curve" smooth="yes"/>
      <point x="180" y="388"/>
      <point x="209" y="412"/>
      <point x="249" y="415" type="curve"/>
      <point x="375" y="356" type="line" smooth="yes"/>
      <point x="409" y="340"/>
      <point x="422" y="323"/>
      <point x="422" y="302" type="curve" smooth="yes"/>
      <point x="422" y="268"/>
      <point x="393" y="244"/>
    </contour>
  </outline>
</glyph>
<glyph name="uni00AC" format="2">
  <advance width="563"/>
  <unicode hex="00AC"/>
  <outline>
    <contour>
      <point x="307" y="0" type="line"/>
      <point x="469" y="0" type="line"/>
      <point x="544" y="354" type="line"/>
      <point x="57" y="354" type="line"/>
      <point x="29" y="219" type="line"/>
      <point x="354" y="219" type="line"/>
    </contour>
  </outline>
</glyph>
<glyph name="registered" format="2">
  <advance width="476"/>
  <unicode hex="00AE"/>
  <outline>
    <contour>
      <point x="274" y="304" type="curve" smooth="yes"/>
      <point x="395" y="304"/>
      <point x="501" y="414"/>
      <point x="501" y="538" type="curve" smooth="yes"/>
      <point x="501" y="644"/>
      <point x="424" y="722"/>
      <point x="319" y="722" type="curve" smooth="yes"/>
      <point x="197" y="722"/>
      <point x="91" y="613"/>
      <point x="91" y="488" type="curve" smooth="yes"/>
      <point x="91" y="382"/>
      <point x="168" y="304"/>
    </contour>
    <contour>
      <point x="278" y="353" type="curve" smooth="yes"/>
      <point x="198" y="353"/>
      <point x="144" y="408"/>
      <point x="144" y="488" type="curve" smooth="yes"/>
      <point x="144" y="591"/>
      <point x="219" y="673"/>
      <point x="313" y="673" type="curve" smooth="yes"/>
      <point x="394" y="673"/>
      <point x="448" y="618"/>
      <point x="448" y="538" type="curve" smooth="yes"/>
      <point x="448" y="435"/>
      <point x="372" y="353"/>
    </contour>
    <contour>
      <point x="202" y="420" type="line"/>
      <point x="254" y="420" type="line"/>
      <point x="268" y="485" type="line"/>
      <point x="289" y="485" type="line"/>
      <point x="309" y="420" type="line"/>
      <point x="363" y="420" type="line"/>
      <point x="339" y="493" type="line"/>
      <point x="364" y="505"/>
      <point x="380" y="529"/>
      <point x="380" y="555" type="curve" smooth="yes"/>
      <point x="380" y="588"/>
      <point x="359" y="608"/>
      <point x="324" y="608" type="curve" smooth="yes"/>
      <point x="242" y="608" type="line"/>
    </contour>
    <contour>
      <point x="308" y="568" type="line" smooth="yes"/>
      <point x="322" y="568"/>
      <point x="329" y="562"/>
      <point x="329" y="548" type="curve" smooth="yes"/>
      <point x="329" y="533"/>
      <point x="318" y="522"/>
      <point x="302" y="522" type="curve" smooth="yes"/>
      <point x="276" y="522" type="line"/>
      <point x="285" y="568" type="line"/>
    </contour>
  </outline>
</glyph>
<glyph name="twosuperior" format="2">
  <advance width="307"/>
  <unicode hex="00B2"/>
  <outline>
    <contour>
      <point x="45" y="350" type="line"/>
      <point x="308" y="350" type="line"/>
      <point x="325" y="430" type="line"/>
      <point x="206" y="430" type="line"/>
      <point x="278" y="481" type="line" smooth="yes"/>
      <point x="332" y="520"/>
      <point x="358" y="560"/>
      <point x="358" y="606" type="curve" smooth="yes"/>
      <point x="358" y="665"/>
      <point x="306" y="705"/>
      <point x="230" y="705" type="curve" smooth="yes"/>
      <point x="183" y="705"/>
      <point x="132" y="687"/>
      <point x="88" y="653" type="curve"/>
      <point x="126" y="585" type="line"/>
      <point x="161" y="611"/>
      <point x="188" y="622"/>
      <point x="213" y="622" type="curve" smooth="yes"/>
      <point x="244" y="622"/>
      <point x="262" y="609"/>
      <point x="262" y="588" type="curve" smooth="yes"/>
      <point x="262" y="569"/>
      <point x="247" y="549"/>
      <point x="217" y="529" type="curve" smooth="yes"/>
      <point x="59" y="417" type="line"/>
    </contour>
  </outline>
</glyph>
<glyph name="threesuperior" format="2">
  <advance width="329"/>
  <unicode hex="00B3"/>
  <outline>
    <contour>
      <point x="194" y="345" type="curve" smooth="yes"/>
      <point x="279" y="345"/>
      <point x="347" y="395"/>
      <point x="347" y="458" type="curve" smooth="yes"/>
      <point x="347" y="484"/>
      <point x="334" y="504"/>
      <point x="311" y="517" type="curve"/>
      <point x="348" y="537"/>
      <point x="374" y="571"/>
      <point x="374" y="608" type="curve" smooth="yes"/>
      <point x="374" y="666"/>
      <point x="321" y="706"/>
      <point x="244" y="706" type="curve" smooth="yes"/>
      <point x="192" y="706"/>
      <point x="138" y="686"/>
      <point x="97" y="650" type="curve"/>
      <point x="149" y="587" type="line"/>
      <point x="176" y="611"/>
      <point x="202" y="622"/>
      <point x="230" y="622" type="curve" smooth="yes"/>
      <point x="255" y="622"/>
      <point x="274" y="608"/>
      <point x="274" y="591" type="curve" smooth="yes"/>
      <point x="274" y="573"/>
      <point x="249" y="558"/>
      <point x="218" y="558" type="curve" smooth="yes"/>
      <point x="195" y="558" type="line"/>
      <point x="179" y="480" type="line"/>
      <point x="213" y="480" type="line" smooth="yes"/>
      <point x="239" y="480"/>
      <point x="252" y="472"/>
      <point x="252" y="457" type="curve" smooth="yes"/>
      <point x="252" y="441"/>
      <point x="230" y="429"/>
      <point x="201" y="429" type="curve" smooth="yes"/>
      <point x="163" y="429"/>
      <point x="141" y="440"/>
      <point x="122" y="469" type="curve"/>
      <point x="49" y="414" type="line"/>
      <point x="74" y="370"/>
      <point x="127" y="345"/>
    </contour>
  </outline>
</glyph>
<glyph name="acute" format="2">
  <advance width="600"/>
  <unicode hex="00B4"/>
  <outline>
    <contour>
      <point x="299" y="611" type="line"/>
      <point x="429" y="611" type="line"/>
      <point x="594" y="747" type="line"/>
      <point x="416" y="747" type="line"/>
    </contour>
  </outline>
</glyph>
<glyph name="uni00B5" format="2">
  <advance width="611"/>
  <unicode hex="00B5"/>
  <outline>
    <contour>
      <point x="-55" y="-211" type="line"/>
      <point x="107" y="-211" type="line"/>
      <point x="151" y="-5" type="line"/>
      <point x="166" y="-8"/>
      <point x="182" y="-10"/>
      <point x="199" y="-10" type="curve" smooth="yes"/>
      <point x="253" y="-10"/>
      <point x="305" y="6"/>
      <point x="351" y="36" type="curve"/>
      <point x="343" y="0" type="line"/>
      <point x="505" y="0" type="line"/>
      <point x="617" y="529" type="line"/>
      <point x="455" y="529" type="line"/>
      <point x="379" y="171" type="line"/>
      <point x="352" y="144"/>
      <point x="316" y="129"/>
      <point x="275" y="129" type="curve" smooth="yes"/>
      <point x="217" y="129"/>
      <point x="187" y="167"/>
      <point x="200" y="225" type="curve"/>
      <point x="264" y="529" type="line"/>
      <point x="102" y="529" type="line"/>
    </contour>
  </outline>
</glyph>
<glyph name="periodcentered" format="2">
  <advance width="250"/>
  <unicode hex="00B7"/>
  <outline>
    <contour>
      <point x="119" y="194" type="curve" smooth="yes"/>
      <point x="173" y="194"/>
      <point x="221" y="243"/>
      <point x="221" y="298" type="curve" smooth="yes"/>
      <point x="221" y="344"/>
      <point x="187" y="379"/>
      <point x="141" y="379" type="curve" smooth="yes"/>
      <point x="85" y="379"/>
      <point x="37" y="331"/>
      <point x="37" y="275" type="curve" smooth="yes"/>
      <point x="37" y="229"/>
      <point x="72" y="194"/>
    </contour>
  </outline>
</glyph>
<glyph name="cedilla" format="2">
  <advance width="600"/>
  <unicode hex="00B8"/>
  <guideline x="300" y="0" angle="78.0" color="0.999,0.001,0.001,0.999" identifier="iVRxW6xjfL"/>
  <outline>
    <contour>
      <point x="199" y="-238" type="curve" smooth="yes"/>
      <point x="279" y="-238"/>
      <point x="344" y="-188"/>
      <point x="344" y="-126" type="curve" smooth="yes"/>
      <point x="344" y="-82"/>
      <point x="316" y="-53"/>
      <point x="268" y="-44" type="curve"/>
      <point x="291" y="0" type="line"/>
      <point x="215" y="0" type="line"/>
      <point x="166" y="-97" type="line"/>
      <point x="209" y="-97" type="line" smooth="yes"/>
      <point x="236" y="-97"/>
      <point x="253" y="-110"/>
      <point x="253" y="-130" type="curve" smooth="yes"/>
      <point x="253" y="-151"/>
      <point x="233" y="-165"/>
      <point x="203" y="-165" type="curve" smooth="yes"/>
      <point x="174" y="-165"/>
      <point x="147" y="-154"/>
      <point x="127" y="-133" type="curve"/>
      <point x="70" y="-185" type="line"/>
      <point x="104" y="-222"/>
      <point x="144" y="-238"/>
    </contour>
  </outline>
</glyph>
<glyph name="guillemotright" format="2">
  <advance width="711"/>
  <unicode hex="00BB"/>
  <outline>
    <contour>
      <point x="237" y="0" type="line"/>
      <point x="400" y="0" type="line"/>
      <point x="697" y="265" type="line"/>
      <point x="512" y="529" type="line"/>
      <point x="351" y="529" type="line"/>
      <point x="530" y="266" type="line"/>
    </contour>
    <contour>
      <point x="-26" y="0" type="line"/>
      <point x="137" y="0" type="line"/>
      <point x="434" y="265" type="line"/>
      <point x="249" y="529" type="line"/>
      <point x="88" y="529" type="line"/>
      <point x="267" y="266" type="line"/>
    </contour>
  </outline>
</glyph>
<glyph name="questiondown" format="2">
  <advance width="523"/>
  <unicode hex="00BF"/>
  <outline>
    <contour>
      <point x="356" y="277" type="curve"/>
      <point x="223" y="277" type="line"/>
      <point x="214" y="229"/>
      <point x="197" y="207"/>
      <point x="153" y="183" type="curve" smooth="yes"/>
      <point x="125" y="167" type="line" smooth="yes"/>
      <point x="8" y="100"/>
      <point x="-40" y="39"/>
      <point x="-40" y="-43" type="curve" smooth="yes"/>
      <point x="-40" y="-144"/>
      <point x="52" y="-214"/>
      <point x="184" y="-214" type="curve" smooth="yes"/>
      <point x="295" y="-214"/>
      <point x="399" y="-154"/>
      <point x="455" y="-58" type="curve"/>
      <point x="338" y="-3" type="line"/>
      <point x="310" y="-49"/>
      <point x="259" y="-79"/>
      <point x="205" y="-79" type="curve" smooth="yes"/>
      <point x="152" y="-79"/>
      <point x="119" y="-56"/>
      <point x="119" y="-19" type="curve" smooth="yes"/>
      <point x="119" y="7"/>
      <point x="142" y="35"/>
      <point x="183" y="59" type="curve" smooth="yes"/>
      <point x="244" y="97" type="line" smooth="yes"/>
      <point x="314" y="139"/>
      <point x="341" y="183"/>
    </contour>
    <contour>
      <point x="327" y="507" type="curve" smooth="yes"/>
      <point x="273" y="507"/>
      <point x="225" y="458"/>
      <point x="225" y="403" type="curve" smooth="yes"/>
      <point x="225" y="357"/>
      <point x="259" y="322"/>
      <point x="305" y="322" type="curve" smooth="yes"/>
      <point x="362" y="322"/>
      <point x="409" y="370"/>
      <point x="409" y="426" type="curve" smooth="yes"/>
      <point x="409" y="472"/>
      <point x="374" y="507"/>
    </contour>
  </outline>
</glyph>
<glyph name="Ccedilla" format="2">
  <advance width="707"/>
  <unicode hex="00C7"/>
  <outline>
    <contour>
      <point x="318" y="-238" type="curve" smooth="yes"/>
      <point x="398" y="-238"/>
      <point x="463" y="-188"/>
      <point x="463" y="-126" type="curve" smooth="yes"/>
      <point x="463" y="-82"/>
      <point x="435" y="-53"/>
      <point x="387" y="-44" type="curve"/>
      <point x="404" y="-12" type="line"/>
      <point x="504" y="-8"/>
      <point x="609" y="39"/>
      <point x="680" y="112" type="curve"/>
      <point x="587" y="227" type="line"/>
      <point x="535" y="174"/>
      <point x="475" y="146"/>
      <point x="411" y="146" type="curve" smooth="yes"/>
      <point x="303" y="146"/>
      <point x="223" y="225"/>
      <point x="223" y="330" type="curve" smooth="yes"/>
      <point x="223" y="451"/>
      <point x="316" y="550"/>
      <point x="431" y="550" type="curve" smooth="yes"/>
      <point x="506" y="550"/>
      <point x="565" y="515"/>
      <point x="602" y="450" type="curve"/>
      <point x="733" y="560" type="line"/>
      <point x="674" y="655"/>
      <point x="571" y="707"/>
      <point x="440" y="707" type="curve" smooth="yes"/>
      <point x="225" y="707"/>
      <point x="50" y="534"/>
      <point x="50" y="321" type="curve" smooth="yes"/>
      <point x="50" y="154"/>
      <point x="169" y="20"/>
      <point x="330" y="-7" type="curve"/>
      <point x="285" y="-97" type="line"/>
      <point x="328" y="-97" type="line" smooth="yes"/>
      <point x="355" y="-97"/>
      <point x="372" y="-110"/>
      <point x="372" y="-130" type="curve" smooth="yes"/>
      <point x="372" y="-151"/>
      <point x="352" y="-165"/>
      <point x="322" y="-165" type="curve" smooth="yes"/>
      <point x="293" y="-165"/>
      <point x="266" y="-154"/>
      <point x="246" y="-133" type="curve"/>
      <point x="189" y="-185" type="line"/>
      <point x="223" y="-222"/>
      <point x="263" y="-238"/>
    </contour>
  </outline>
</glyph>
<glyph name="germandbls" format="2">
  <advance width="697"/>
  <unicode hex="00DF"/>
  <outline>
    <contour>
      <point x="465" y="-13" type="curve" smooth="yes"/>
      <point x="581" y="-13"/>
      <point x="664" y="58"/>
      <point x="664" y="159" type="curve" smooth="yes"/>
      <point x="664" y="212"/>
      <point x="635" y="250"/>
      <point x="573" y="281" type="curve" smooth="yes"/>
      <point x="500" y="317" type="line" smooth="yes"/>
      <point x="476" y="328"/>
      <point x="467" y="338"/>
      <point x="467" y="351" type="curve" smooth="yes"/>
      <point x="467" y="406"/>
      <point x="671" y="413"/>
      <point x="671" y="565" type="curve" smooth="yes"/>
      <point x="671" y="666"/>
      <point x="557" y="739"/>
      <point x="400" y="739" type="curve" smooth="yes"/>
      <point x="241" y="739"/>
      <point x="134" y="655"/>
      <point x="101" y="503" type="curve" smooth="yes"/>
      <point x="-7" y="0" type="line"/>
      <point x="153" y="0" type="line"/>
      <point x="256" y="481" type="line" smooth="yes"/>
      <point x="274" y="567"/>
      <point x="322" y="610"/>
      <point x="398" y="610" type="curve" smooth="yes"/>
      <point x="462" y="610"/>
      <point x="512" y="581"/>
      <point x="512" y="544" type="curve" smooth="yes"/>
      <point x="512" y="469"/>
      <point x="319" y="468"/>
      <point x="319" y="333" type="curve" smooth="yes"/>
      <point x="319" y="286"/>
      <point x="344" y="252"/>
      <point x="397" y="226" type="curve" smooth="yes"/>
      <point x="475" y="188" type="line" smooth="yes"/>
      <point x="509" y="171"/>
      <point x="521" y="159"/>
      <point x="521" y="141" type="curve" smooth="yes"/>
      <point x="521" y="114"/>
      <point x="499" y="98"/>
      <point x="460" y="98" type="curve" smooth="yes"/>
      <point x="414" y="98"/>
      <point x="369" y="123"/>
      <point x="332" y="170" type="curve"/>
      <point x="239" y="92" type="line"/>
      <point x="291" y="26"/>
      <point x="375" y="-13"/>
    </contour>
  </outline>
</glyph>
<glyph name="ae" format="2">
  <advance width="908"/>
  <unicode hex="00E6"/>
  <outline>
    <contour>
      <point x="213" y="-5" type="curve" smooth="yes"/>
      <point x="285" y="-5"/>
      <point x="342" y="16"/>
      <point x="412" y="70" type="curve"/>
      <point x="460" y="19"/>
      <point x="533" y="-11"/>
      <point x="618" y="-11" type="curve" smooth="yes"/>
      <point x="697" y="-11"/>
      <point x="758" y="9"/>
      <point x="825" y="58" type="curve"/>
      <point x="736" y="159" type="line"/>
      <point x="709" y="135"/>
      <point x="673" y="122"/>
      <point x="631" y="122" type="curve" smooth="yes"/>
      <point x="567" y="122"/>
      <point x="520" y="157"/>
      <point x="504" y="210" type="curve"/>
      <point x="874" y="210" type="line"/>
      <point x="879" y="251"/>
      <point x="880" y="265"/>
      <point x="880" y="280" type="curve" smooth="yes"/>
      <point x="880" y="431"/>
      <point x="780" y="537"/>
      <point x="636" y="537" type="curve" smooth="yes"/>
      <point x="576" y="537"/>
      <point x="517" y="516"/>
      <point x="467" y="477" type="curve"/>
      <point x="432" y="516"/>
      <point x="374" y="538"/>
      <point x="298" y="538" type="curve" smooth="yes"/>
      <point x="231" y="538"/>
      <point x="160" y="524"/>
      <point x="76" y="493" type="curve"/>
      <point x="114" y="373" type="line"/>
      <point x="182" y="396"/>
      <point x="222" y="405"/>
      <point x="257" y="405" type="curve" smooth="yes"/>
      <point x="331" y="405"/>
      <point x="369" y="372"/>
      <point x="357" y="319" type="curve" smooth="yes"/>
      <point x="353" y="300" type="line"/>
      <point x="312" y="311"/>
      <point x="269" y="317"/>
      <point x="227" y="317" type="curve" smooth="yes"/>
      <point x="94" y="317"/>
      <point x="14" y="254"/>
      <point x="14" y="148" type="curve" smooth="yes"/>
      <point x="14" y="54"/>
      <point x="91" y="-5"/>
    </contour>
    <contour>
      <point x="513" y="322" type="line"/>
      <point x="535" y="371"/>
      <point x="577" y="404"/>
      <point x="629" y="404" type="curve" smooth="yes"/>
      <point x="679" y="404"/>
      <point x="717" y="372"/>
      <point x="731" y="322" type="curve"/>
    </contour>
    <contour>
      <point x="244" y="107" type="curve" smooth="yes"/>
      <point x="195" y="107"/>
      <point x="163" y="128"/>
      <point x="163" y="159" type="curve" smooth="yes"/>
      <point x="163" y="191"/>
      <point x="195" y="211"/>
      <point x="246" y="211" type="curve" smooth="yes"/>
      <point x="279" y="211"/>
      <point x="322" y="205"/>
      <point x="351" y="196" type="curve"/>
      <point x="354" y="178"/>
      <point x="358" y="161"/>
      <point x="364" y="145" type="curve"/>
      <point x="327" y="120"/>
      <point x="286" y="107"/>
    </contour>
  </outline>
</glyph>
<glyph name="Aogonek" format="2">
  <advance width="738"/>
  <unicode hex="0104"/>
  <outline>
    <contour>
      <point x="-63" y="0" type="line"/>
      <point x="121" y="0" type="line"/>
      <point x="219" y="169" type="line"/>
      <point x="487" y="169" type="line"/>
      <point x="515" y="0" type="line"/>
      <point x="604" y="0" type="line"/>
      <point x="527" y="-44"/>
      <point x="489" y="-93"/>
      <point x="489" y="-148" type="curve" smooth="yes"/>
      <point x="489" y="-193"/>
      <point x="523" y="-221"/>
      <point x="577" y="-221" type="curve" smooth="yes"/>
      <point x="608" y="-221"/>
      <point x="641" y="-213"/>
      <point x="667" y="-198" type="curve"/>
      <point x="661" y="-128" type="line"/>
      <point x="650" y="-135"/>
      <point x="636" y="-139"/>
      <point x="623" y="-139" type="curve" smooth="yes"/>
      <point x="599" y="-139"/>
      <point x="585" y="-128"/>
      <point x="585" y="-108" type="curve" smooth="yes"/>
      <point x="585" y="-72"/>
      <point x="619" y="-37"/>
      <point x="689" y="0" type="curve"/>
      <point x="557" y="700" type="line"/>
      <point x="364" y="700" type="line"/>
    </contour>
    <contour>
      <point x="298" y="306" type="line"/>
      <point x="428" y="530" type="line"/>
      <point x="465" y="306" type="line"/>
    </contour>
  </outline>
</glyph>
<glyph name="Dcroat" format="2">
  <advance width="755"/>
  <unicode hex="0110"/>
  <outline>
    <contour>
      <point x="26" y="0" type="line"/>
      <point x="341" y="0" type="line" smooth="yes"/>
      <point x="559" y="0"/>
      <point x="743" y="177"/>
      <point x="743" y="387" type="curve" smooth="yes"/>
      <point x="743" y="566"/>
      <point x="603" y="700"/>
      <point x="416" y="700" type="curve" smooth="yes"/>
      <point x="175" y="700" type="line"/>
      <point x="115" y="418" type="line"/>
      <point x="41" y="418" type="line"/>
      <point x="13" y="283" type="line"/>
      <point x="86" y="283" type="line"/>
    </contour>
    <contour>
      <point x="226" y="152" type="line"/>
      <point x="254" y="283" type="line"/>
      <point x="416" y="283" type="line"/>
      <point x="444" y="418" type="line"/>
      <point x="283" y="418" type="line"/>
      <point x="311" y="548" type="line"/>
      <point x="395" y="548" type="line" smooth="yes"/>
      <point x="494" y="548"/>
      <point x="567" y="474"/>
      <point x="567" y="373" type="curve" smooth="yes"/>
      <point x="567" y="250"/>
      <point x="472" y="152"/>
      <point x="353" y="152" type="curve" smooth="yes"/>
    </contour>
  </outline>
</glyph>
<glyph name="dcroat" format="2">
  <advance width="633"/>
  <unicode hex="0111"/>
  <outline>
    <contour>
      <point x="263" y="-7" type="curve" smooth="yes"/>
      <point x="303" y="-7"/>
      <point x="342" y="3"/>
      <point x="378" y="22" type="curve"/>
      <point x="373" y="0" type="line"/>
      <point x="530" y="0" type="line"/>
      <point x="652" y="576" type="line"/>
      <point x="701" y="576" type="line"/>
      <point x="721" y="671" type="line"/>
      <point x="672" y="671" type="line"/>
      <point x="686" y="735" type="line"/>
      <point x="520" y="700" type="line"/>
      <point x="514" y="671" type="line"/>
      <point x="389" y="671" type="line"/>
      <point x="369" y="576" type="line"/>
      <point x="494" y="576" type="line"/>
      <point x="475" y="488" type="line"/>
      <point x="435" y="519"/>
      <point x="382" y="536"/>
      <point x="323" y="536" type="curve" smooth="yes"/>
      <point x="159" y="536"/>
      <point x="27" y="404"/>
      <point x="27" y="239" type="curve" smooth="yes"/>
      <point x="27" y="100"/>
      <point x="130" y="-7"/>
    </contour>
    <contour>
      <point x="307" y="130" type="curve" smooth="yes"/>
      <point x="236" y="130"/>
      <point x="183" y="183"/>
      <point x="183" y="253" type="curve" smooth="yes"/>
      <point x="183" y="334"/>
      <point x="247" y="398"/>
      <point x="329" y="398" type="curve" smooth="yes"/>
      <point x="376" y="398"/>
      <point x="419" y="380"/>
      <point x="446" y="352" type="curve"/>
      <point x="406" y="164" type="line"/>
      <point x="378" y="141"/>
      <point x="345" y="130"/>
    </contour>
  </outline>
</glyph>
<glyph name="eogonek" format="2">
  <advance width="586"/>
  <unicode hex="0119"/>
  <outline>
    <contour>
      <point x="274" y="-221" type="curve" smooth="yes"/>
      <point x="305" y="-221"/>
      <point x="338" y="-213"/>
      <point x="364" y="-198" type="curve"/>
      <point x="358" y="-128" type="line"/>
      <point x="347" y="-135"/>
      <point x="333" y="-139"/>
      <point x="320" y="-139" type="curve" smooth="yes"/>
      <point x="296" y="-139"/>
      <point x="282" y="-128"/>
      <point x="282" y="-108" type="curve" smooth="yes"/>
      <point x="282" y="-72"/>
      <point x="316" y="-37"/>
      <point x="385" y="-1" type="curve"/>
      <point x="426" y="10"/>
      <point x="463" y="29"/>
      <point x="503" y="58" type="curve"/>
      <point x="414" y="159" type="line"/>
      <point x="387" y="135"/>
      <point x="351" y="122"/>
      <point x="309" y="122" type="curve" smooth="yes"/>
      <point x="245" y="122"/>
      <point x="198" y="157"/>
      <point x="182" y="210" type="curve"/>
      <point x="552" y="210" type="line"/>
      <point x="557" y="251"/>
      <point x="558" y="265"/>
      <point x="558" y="280" type="curve" smooth="yes"/>
      <point x="558" y="431"/>
      <point x="458" y="537"/>
      <point x="314" y="537" type="curve" smooth="yes"/>
      <point x="155" y="537"/>
      <point x="24" y="403"/>
      <point x="24" y="242" type="curve" smooth="yes"/>
      <point x="24" y="99"/>
      <point x="132" y="-5"/>
      <point x="284" y="-11" type="curve"/>
      <point x="219" y="-52"/>
      <point x="186" y="-97"/>
      <point x="186" y="-148" type="curve" smooth="yes"/>
      <point x="186" y="-193"/>
      <point x="220" y="-221"/>
    </contour>
    <contour>
      <point x="191" y="322" type="line"/>
      <point x="213" y="371"/>
      <point x="255" y="404"/>
      <point x="307" y="404" type="curve" smooth="yes"/>
      <point x="357" y="404"/>
      <point x="395" y="372"/>
      <point x="409" y="322" type="curve"/>
    </contour>
  </outline>
</glyph>
<glyph name="Hbar" format="2">
  <advance width="768"/>
  <unicode hex="0126"/>
  <outline>
    <contour>
      <point x="18" y="0" type="line"/>
      <point x="186" y="0" type="line"/>
      <point x="244" y="274" type="line"/>
      <point x="527" y="274" type="line"/>
      <point x="469" y="0" type="line"/>
      <point x="637" y="0" type="line"/>
      <point x="741" y="489" type="line"/>
      <point x="808" y="489" type="line"/>
      <point x="836" y="624" type="line"/>
      <point x="770" y="624" type="line"/>
      <point x="786" y="700" type="line"/>
      <point x="618" y="700" type="line"/>
      <point x="602" y="624" type="line"/>
      <point x="319" y="624" type="line"/>
      <point x="335" y="700" type="line"/>
      <point x="167" y="700" type="line"/>
      <point x="151" y="624" type="line"/>
      <point x="84" y="624" type="line"/>
      <point x="56" y="489" type="line"/>
      <point x="122" y="489" type="line"/>
    </contour>
    <contour>
      <point x="278" y="431" type="line"/>
      <point x="290" y="489" type="line"/>
      <point x="573" y="489" type="line"/>
      <point x="561" y="431" type="line"/>
    </contour>
  </outline>
</glyph>
<glyph name="Iogonek" format="2">
  <advance width="282"/>
  <unicode hex="012E"/>
  <outline>
    <contour>
      <point x="57" y="-221" type="curve" smooth="yes"/>
      <point x="88" y="-221"/>
      <point x="121" y="-213"/>
      <point x="147" y="-198" type="curve"/>
      <point x="141" y="-128" type="line"/>
      <point x="130" y="-135"/>
      <point x="116" y="-139"/>
      <point x="103" y="-139" type="curve" smooth="yes"/>
      <point x="79" y="-139"/>
      <point x="65" y="-128"/>
      <point x="65" y="-108" type="curve" smooth="yes"/>
      <point x="65" y="-72"/>
      <point x="99" y="-37"/>
      <point x="169" y="0" type="curve"/>
      <point x="318" y="700" type="line"/>
      <point x="150" y="700" type="line"/>
      <point x="1" y="0" type="line"/>
      <point x="84" y="0" type="line"/>
      <point x="7" y="-44"/>
      <point x="-31" y="-93"/>
      <point x="-31" y="-148" type="curve" smooth="yes"/>
      <point x="-31" y="-193"/>
      <point x="3" y="-221"/>
    </contour>
  </outline>
</glyph>
<glyph name="dotlessi" format="2">
  <advance width="257"/>
  <unicode hex="0131"/>
  <anchor x="184" y="529" name="top"/>
  <anchor x="152" y="0" name="bottom"/>
  <outline>
    <contour>
      <point x="-7" y="0" type="line"/>
      <point x="152" y="0" type="line"/>
      <point x="264" y="529" type="line"/>
      <point x="105" y="529" type="line"/>
    </contour>
  </outline>
</glyph>
<glyph name="lslash" format="2">
  <advance width="302"/>
  <unicode hex="0142"/>
  <outline>
    <contour>
      <point x="18" y="0" type="line"/>
      <point x="177" y="0" type="line"/>
      <point x="251" y="347" type="line"/>
      <point x="327" y="393" type="line"/>
      <point x="358" y="538" type="line"/>
      <point x="281" y="492" type="line"/>
      <point x="333" y="735" type="line"/>
      <point x="167" y="700" type="line"/>
      <point x="99" y="382" type="line"/>
      <point x="23" y="336" type="line"/>
      <point x="-8" y="191" type="line"/>
      <point x="68" y="237" type="line"/>
    </contour>
  </outline>
</glyph>
<glyph name="Eng" format="2">
  <advance width="743"/>
  <unicode hex="014A"/>
  <outline>
    <contour>
      <point x="420" y="-214" type="curve" smooth="yes"/>
      <point x="525" y="-214"/>
      <point x="596" y="-158"/>
      <point x="618" y="-57" type="curve" smooth="yes"/>
      <point x="779" y="700" type="line"/>
      <point x="620" y="700" type="line"/>
      <point x="532" y="285" type="line"/>
      <point x="309" y="700" type="line"/>
      <point x="150" y="700" type="line"/>
      <point x="1" y="0" type="line"/>
      <point x="160" y="0" type="line"/>
      <point x="252" y="431" type="line"/>
      <point x="474" y="13" type="line"/>
      <point x="463" y="-40" type="line" smooth="yes"/>
      <point x="457" y="-70"/>
      <point x="439" y="-84"/>
      <point x="407" y="-84" type="curve" smooth="yes"/>
      <point x="383" y="-84"/>
      <point x="368" y="-81"/>
      <point x="353" y="-78" type="curve"/>
      <point x="327" y="-199" type="line"/>
      <point x="346" y="-206"/>
      <point x="387" y="-214"/>
    </contour>
  </outline>
</glyph>
<glyph name="OE" format="2">
  <advance width="1105"/>
  <unicode hex="0152"/>
  <outline>
    <contour>
      <point x="393" y="0" type="curve" smooth="yes"/>
      <point x="1005" y="0" type="line"/>
      <point x="1036" y="149" type="line"/>
      <point x="698" y="149" type="line"/>
      <point x="729" y="188"/>
      <point x="752" y="233"/>
      <point x="765" y="281" type="curve"/>
      <point x="941" y="281" type="line"/>
      <point x="972" y="425" type="line"/>
      <point x="775" y="425" type="line"/>
      <point x="768" y="470"/>
      <point x="752" y="513"/>
      <point x="728" y="551" type="curve"/>
      <point x="1122" y="551" type="line"/>
      <point x="1153" y="700" type="line"/>
      <point x="439" y="700" type="line" smooth="yes"/>
      <point x="227" y="700"/>
      <point x="51" y="529"/>
      <point x="51" y="323" type="curve" smooth="yes"/>
      <point x="51" y="139"/>
      <point x="198" y="0"/>
    </contour>
    <contour>
      <point x="404" y="157" type="curve" smooth="yes"/>
      <point x="301" y="157"/>
      <point x="225" y="231"/>
      <point x="225" y="333" type="curve" smooth="yes"/>
      <point x="225" y="447"/>
      <point x="316" y="542"/>
      <point x="428" y="542" type="curve" smooth="yes"/>
      <point x="529" y="542"/>
      <point x="604" y="467"/>
      <point x="604" y="367" type="curve" smooth="yes"/>
      <point x="604" y="252"/>
      <point x="514" y="157"/>
    </contour>
  </outline>
</glyph>
<glyph name="oe" format="2">
  <advance width="999"/>
  <unicode hex="0153"/>
  <outline>
    <contour>
      <point x="292" y="-10" type="curve" smooth="yes"/>
      <point x="374" y="-10"/>
      <point x="448" y="25"/>
      <point x="502" y="82" type="curve"/>
      <point x="549" y="24"/>
      <point x="622" y="-11"/>
      <point x="709" y="-11" type="curve" smooth="yes"/>
      <point x="788" y="-11"/>
      <point x="849" y="9"/>
      <point x="916" y="58" type="curve"/>
      <point x="827" y="159" type="line"/>
      <point x="800" y="135"/>
      <point x="764" y="122"/>
      <point x="722" y="122" type="curve" smooth="yes"/>
      <point x="658" y="122"/>
      <point x="611" y="157"/>
      <point x="595" y="210" type="curve"/>
      <point x="965" y="210" type="line"/>
      <point x="970" y="251"/>
      <point x="971" y="265"/>
      <point x="971" y="280" type="curve" smooth="yes"/>
      <point x="971" y="431"/>
      <point x="871" y="537"/>
      <point x="727" y="537" type="curve"/>
      <point x="649" y="537"/>
      <point x="577" y="503"/>
      <point x="526" y="448" type="curve"/>
      <point x="480" y="504"/>
      <point x="408" y="539"/>
      <point x="326" y="539" type="curve" smooth="yes"/>
      <point x="162" y="539"/>
      <point x="26" y="406"/>
      <point x="26" y="245" type="curve" smooth="yes"/>
      <point x="26" y="100"/>
      <point x="140" y="-10"/>
    </contour>
    <contour>
      <point x="604" y="322" type="line"/>
      <point x="626" y="371"/>
      <point x="668" y="404"/>
      <point x="720" y="404" type="curve"/>
      <point x="770" y="404"/>
      <point x="808" y="372"/>
      <point x="822" y="322" type="curve"/>
    </contour>
    <contour>
      <point x="299" y="130" type="curve" smooth="yes"/>
      <point x="231" y="130"/>
      <point x="182" y="181"/>
      <point x="182" y="252" type="curve" smooth="yes"/>
      <point x="182" y="333"/>
      <point x="243" y="399"/>
      <point x="318" y="399" type="curve" smooth="yes"/>
      <point x="386" y="399"/>
      <point x="435" y="348"/>
      <point x="435" y="277" type="curve" smooth="yes"/>
      <point x="435" y="196"/>
      <point x="374" y="130"/>
    </contour>
  </outline>
</glyph>
<glyph name="Scedilla" format="2">
  <advance width="631"/>
  <unicode hex="015E"/>
  <outline>
    <contour>
      <point x="245" y="-238" type="curve" smooth="yes"/>
      <point x="325" y="-238"/>
      <point x="390" y="-188"/>
      <point x="390" y="-126" type="curve" smooth="yes"/>
      <point x="390" y="-82"/>
      <point x="362" y="-53"/>
      <point x="314" y="-44" type="curve"/>
      <point x="332" y="-10" type="line"/>
      <point x="500" y="-4"/>
      <point x="608" y="89"/>
      <point x="608" y="229" type="curve" smooth="yes"/>
      <point x="608" y="321"/>
      <point x="547" y="385"/>
      <point x="433" y="412" type="curve" smooth="yes"/>
      <point x="296" y="445" type="line" smooth="yes"/>
      <point x="242" y="459"/>
      <point x="221" y="476"/>
      <point x="221" y="505" type="curve" smooth="yes"/>
      <point x="221" y="543"/>
      <point x="259" y="567"/>
      <point x="321" y="567" type="curve" smooth="yes"/>
      <point x="402" y="567"/>
      <point x="471" y="536"/>
      <point x="539" y="469" type="curve"/>
      <point x="645" y="589" type="line"/>
      <point x="568" y="665"/>
      <point x="453" y="710"/>
      <point x="336" y="710" type="curve" smooth="yes"/>
      <point x="166" y="710"/>
      <point x="60" y="624"/>
      <point x="60" y="485" type="curve" smooth="yes"/>
      <point x="60" y="396"/>
      <point x="112" y="334"/>
      <point x="209" y="308" type="curve" smooth="yes"/>
      <point x="355" y="270" type="line" smooth="yes"/>
      <point x="416" y="254"/>
      <point x="440" y="236"/>
      <point x="440" y="205" type="curve" smooth="yes"/>
      <point x="440" y="160"/>
      <point x="398" y="133"/>
      <point x="328" y="133" type="curve" smooth="yes"/>
      <point x="242" y="133"/>
      <point x="170" y="168"/>
      <point x="94" y="247" type="curve"/>
      <point x="-16" y="129" type="line"/>
      <point x="55" y="52"/>
      <point x="150" y="5"/>
      <point x="258" y="-7" type="curve"/>
      <point x="212" y="-97" type="line"/>
      <point x="255" y="-97" type="line" smooth="yes"/>
      <point x="282" y="-97"/>
      <point x="299" y="-110"/>
      <point x="299" y="-130" type="curve" smooth="yes"/>
      <point x="299" y="-151"/>
      <point x="279" y="-165"/>
      <point x="249" y="-165" type="curve" smooth="yes"/>
      <point x="220" y="-165"/>
      <point x="193" y="-154"/>
      <point x="173" y="-133" type="curve"/>
      <point x="116" y="-185" type="line"/>
      <point x="150" y="-222"/>
      <point x="190" y="-238"/>
    </contour>
  </outline>
</glyph>
<glyph name="scedilla" format="2">
  <advance width="503"/>
  <unicode hex="015F"/>
  <outline>
    <contour>
      <point x="167" y="-238" type="curve" smooth="yes"/>
      <point x="247" y="-238"/>
      <point x="312" y="-188"/>
      <point x="312" y="-126" type="curve" smooth="yes"/>
      <point x="312" y="-82"/>
      <point x="284" y="-53"/>
      <point x="236" y="-44" type="curve"/>
      <point x="253" y="-11" type="line"/>
      <point x="377" y="-5"/>
      <point x="469" y="72"/>
      <point x="469" y="173" type="curve" smooth="yes"/>
      <point x="469" y="245"/>
      <point x="418" y="298"/>
      <point x="330" y="317" type="curve" smooth="yes"/>
      <point x="229" y="339" type="line" smooth="yes"/>
      <point x="190" y="347"/>
      <point x="175" y="359"/>
      <point x="175" y="379" type="curve" smooth="yes"/>
      <point x="175" y="404"/>
      <point x="199" y="418"/>
      <point x="239" y="418" type="curve" smooth="yes"/>
      <point x="289" y="418"/>
      <point x="343" y="398"/>
      <point x="397" y="359" type="curve"/>
      <point x="484" y="457" type="line"/>
      <point x="422" y="508"/>
      <point x="338" y="537"/>
      <point x="250" y="537" type="curve" smooth="yes"/>
      <point x="116" y="537"/>
      <point x="34" y="470"/>
      <point x="34" y="360" type="curve" smooth="yes"/>
      <point x="34" y="284"/>
      <point x="82" y="231"/>
      <point x="169" y="212" type="curve" smooth="yes"/>
      <point x="270" y="190" type="line" smooth="yes"/>
      <point x="301" y="183"/>
      <point x="317" y="171"/>
      <point x="317" y="153" type="curve" smooth="yes"/>
      <point x="317" y="127"/>
      <point x="287" y="110"/>
      <point x="240" y="110" type="curve" smooth="yes"/>
      <point x="183" y="110"/>
      <point x="127" y="133"/>
      <point x="67" y="180" type="curve"/>
      <point x="-21" y="76" type="line"/>
      <point x="28" y="33"/>
      <point x="100" y="3"/>
      <point x="179" y="-7" type="curve"/>
      <point x="134" y="-97" type="line"/>
      <point x="177" y="-97" type="line" smooth="yes"/>
      <point x="204" y="-97"/>
      <point x="221" y="-110"/>
      <point x="221" y="-130" type="curve" smooth="yes"/>
      <point x="221" y="-151"/>
      <point x="201" y="-165"/>
      <point x="171" y="-165" type="curve" smooth="yes"/>
      <point x="142" y="-165"/>
      <point x="115" y="-154"/>
      <point x="95" y="-133" type="curve"/>
      <point x="38" y="-185" type="line"/>
      <point x="72" y="-222"/>
      <point x="112" y="-238"/>
    </contour>
  </outline>
</glyph>
<glyph name="tcedilla" format="2">
  <advance width="439"/>
  <unicode hex="0163"/>
  <outline>
    <contour>
      <point x="185" y="-238" type="curve" smooth="yes"/>
      <point x="265" y="-238"/>
      <point x="330" y="-188"/>
      <point x="330" y="-126" type="curve" smooth="yes"/>
      <point x="330" y="-82"/>
      <point x="302" y="-53"/>
      <point x="254" y="-44" type="curve"/>
      <point x="274" y="-6" type="line"/>
      <point x="305" y="-5"/>
      <point x="344" y="0"/>
      <point x="366" y="5" type="curve"/>
      <point x="394" y="135" type="line"/>
      <point x="370" y="129"/>
      <point x="351" y="127"/>
      <point x="328" y="127" type="curve" smooth="yes"/>
      <point x="274" y="127"/>
      <point x="256" y="147"/>
      <point x="266" y="195" type="curve" smooth="yes"/>
      <point x="309" y="394" type="line"/>
      <point x="454" y="394" type="line"/>
      <point x="482" y="529" type="line"/>
      <point x="337" y="529" type="line"/>
      <point x="374" y="700" type="line"/>
      <point x="208" y="665" type="line"/>
      <point x="179" y="529" type="line"/>
      <point x="74" y="529" type="line"/>
      <point x="46" y="394" type="line"/>
      <point x="151" y="394" type="line"/>
      <point x="103" y="170" type="line" smooth="yes"/>
      <point x="83" y="77"/>
      <point x="118" y="18"/>
      <point x="201" y="0" type="curve"/>
      <point x="152" y="-97" type="line"/>
      <point x="195" y="-97" type="line" smooth="yes"/>
      <point x="222" y="-97"/>
      <point x="239" y="-110"/>
      <point x="239" y="-130" type="curve" smooth="yes"/>
      <point x="239" y="-151"/>
      <point x="219" y="-165"/>
      <point x="189" y="-165" type="curve" smooth="yes"/>
      <point x="160" y="-165"/>
      <point x="133" y="-154"/>
      <point x="113" y="-133" type="curve"/>
      <point x="56" y="-185" type="line"/>
      <point x="90" y="-222"/>
      <point x="130" y="-238"/>
    </contour>
  </outline>
</glyph>
<glyph name="Tbar" format="2">
  <advance width="653"/>
  <unicode hex="0166"/>
  <outline>
    <contour>
      <point x="186" y="0" type="line"/>
      <point x="355" y="0" type="line"/>
      <point x="412" y="269" type="line"/>
      <point x="547" y="269" type="line"/>
      <point x="575" y="404" type="line"/>
      <point x="441" y="404" type="line"/>
      <point x="472" y="548" type="line"/>
      <point x="695" y="548" type="line"/>
      <point x="728" y="700" type="line"/>
      <point x="111" y="700" type="line"/>
      <point x="78" y="548" type="line"/>
      <point x="303" y="548" type="line"/>
      <point x="272" y="404" type="line"/>
      <point x="138" y="404" type="line"/>
      <point x="110" y="269" type="line"/>
      <point x="243" y="269" type="line"/>
    </contour>
  </outline>
</glyph>
<glyph name="tbar" format="2">
  <advance width="449"/>
  <unicode hex="0167"/>
  <outline>
    <contour>
      <point x="263" y="-6" type="curve" smooth="yes"/>
      <point x="296" y="-6"/>
      <point x="341" y="-1"/>
      <point x="366" y="5" type="curve"/>
      <point x="394" y="135" type="line"/>
      <point x="370" y="129"/>
      <point x="351" y="127"/>
      <point x="328" y="127" type="curve" smooth="yes"/>
      <point x="274" y="127"/>
      <point x="256" y="147"/>
      <point x="266" y="195" type="curve" smooth="yes"/>
      <point x="270" y="215" type="line"/>
      <point x="416" y="215" type="line"/>
      <point x="439" y="330" type="line"/>
      <point x="295" y="330" type="line"/>
      <point x="309" y="394" type="line"/>
      <point x="454" y="394" type="line"/>
      <point x="482" y="529" type="line"/>
      <point x="337" y="529" type="line"/>
      <point x="374" y="700" type="line"/>
      <point x="208" y="665" type="line"/>
      <point x="179" y="529" type="line"/>
      <point x="74" y="529" type="line"/>
      <point x="46" y="394" type="line"/>
      <point x="151" y="394" type="line"/>
      <point x="137" y="330" type="line"/>
      <point x="32" y="330" type="line"/>
      <point x="9" y="215" type="line"/>
      <point x="113" y="215" type="line"/>
      <point x="103" y="170" type="line" smooth="yes"/>
      <point x="79" y="57"/>
      <point x="136" y="-6"/>
    </contour>
  </outline>
</glyph>
<glyph name="uni02BB" format="2">
  <advance width="250"/>
  <unicode hex="02BB"/>
  <outline>
    <contour>
      <point x="350" y="750" type="line"/>
      <point x="231" y="750" type="line"/>
      <point x="55" y="466" type="line"/>
      <point x="218" y="466" type="line"/>
    </contour>
  </outline>
</glyph>
<glyph name="caron" format="2">
  <advance width="600"/>
  <unicode hex="02C7"/>
  <outline>
    <contour>
      <point x="297" y="609" type="line"/>
      <point x="458" y="609" type="line"/>
      <point x="604" y="750" type="line"/>
      <point x="472" y="750" type="line"/>
      <point x="389" y="679" type="line"/>
      <point x="335" y="750" type="line"/>
      <point x="210" y="750" type="line"/>
    </contour>
  </outline>
</glyph>
<glyph name="breve" format="2">
  <advance width="600"/>
  <unicode hex="02D8"/>
  <outline>
    <contour>
      <point x="384" y="603" type="curve" smooth="yes"/>
      <point x="471" y="603"/>
      <point x="540" y="649"/>
      <point x="579" y="734" type="curve"/>
      <point x="483" y="764" type="line"/>
      <point x="458" y="717"/>
      <point x="425" y="692"/>
      <point x="386" y="692" type="curve" smooth="yes"/>
      <point x="343" y="692"/>
      <point x="320" y="718"/>
      <point x="315" y="772" type="curve"/>
      <point x="222" y="752" type="line"/>
      <point x="226" y="660"/>
      <point x="287" y="603"/>
    </contour>
  </outline>
</glyph>
<glyph name="tilde" format="2">
  <advance width="600"/>
  <unicode hex="02DC"/>
  <outline>
    <contour>
      <point x="272" y="602" type="line"/>
      <point x="288" y="639"/>
      <point x="302" y="655"/>
      <point x="319" y="655" type="curve" smooth="yes"/>
      <point x="362" y="655"/>
      <point x="403" y="595"/>
      <point x="469" y="595" type="curve" smooth="yes"/>
      <point x="523" y="595"/>
      <point x="565" y="635"/>
      <point x="600" y="718" type="curve"/>
      <point x="512" y="748" type="line"/>
      <point x="492" y="708"/>
      <point x="482" y="696"/>
      <point x="464" y="696" type="curve" smooth="yes"/>
      <point x="427" y="696"/>
      <point x="377" y="756"/>
      <point x="314" y="756" type="curve" smooth="yes"/>
      <point x="261" y="756"/>
      <point x="219" y="717"/>
      <point x="183" y="633" type="curve"/>
    </contour>
  </outline>
</glyph>
<glyph name="hungarumlaut" format="2">
  <advance width="600"/>
  <unicode hex="02DD"/>
  <outline>
    <contour>
      <point x="331" y="746" type="line"/>
      <point x="204" y="613" type="line"/>
      <point x="323" y="613" type="line"/>
      <point x="483" y="746" type="line"/>
    </contour>
    <contour>
      <point x="549" y="746" type="line"/>
      <point x="422" y="613" type="line"/>
      <point x="532" y="613" type="line"/>
      <point x="704" y="746" type="line"/>
    </contour>
  </outline>
</glyph>
<glyph name="emdash" format="2">
  <advance width="699"/>
  <unicode hex="2014"/>
  <outline>
    <contour>
      <point x="56" y="354" type="line"/>
      <point x="28" y="219" type="line"/>
      <point x="653" y="219" type="line"/>
      <point x="681" y="354" type="line"/>
    </contour>
  </outline>
</glyph>
<glyph name="bullet" format="2">
  <advance width="358"/>
  <unicode hex="2022"/>
  <outline>
    <contour>
      <point x="178" y="202" type="curve" smooth="yes"/>
      <point x="250" y="202"/>
      <point x="314" y="266"/>
      <point x="314" y="338" type="curve" smooth="yes"/>
      <point x="314" y="399"/>
      <point x="269" y="445"/>
      <point x="208" y="445" type="curve" smooth="yes"/>
      <point x="132" y="445"/>
      <point x="70" y="383"/>
      <point x="70" y="308" type="curve" smooth="yes"/>
      <point x="70" y="248"/>
      <point x="116" y="202"/>
    </contour>
  </outline>
</glyph>
<glyph name="guilsinglleft" format="2">
  <advance width="439"/>
  <unicode hex="2039"/>
  <outline>
    <contour>
      <point x="474" y="529" type="line"/>
      <point x="311" y="529" type="line"/>
      <point x="14" y="264" type="line"/>
      <point x="199" y="0" type="line"/>
      <point x="360" y="0" type="line"/>
      <point x="181" y="263" type="line"/>
    </contour>
  </outline>
</glyph>
<glyph name="uni2070" format="2">
  <advance width="360"/>
  <unicode hex="2070"/>
  <outline>
    <contour>
      <point x="210" y="345" type="curve" smooth="yes"/>
      <point x="317" y="345"/>
      <point x="401" y="442"/>
      <point x="401" y="564" type="curve" smooth="yes"/>
      <point x="401" y="651"/>
      <point x="346" y="706"/>
      <point x="260" y="706" type="curve" smooth="yes"/>
      <point x="154" y="706"/>
      <point x="70" y="609"/>
      <point x="70" y="487" type="curve" smooth="yes"/>
      <point x="70" y="400"/>
      <point x="124" y="345"/>
    </contour>
    <contour>
      <point x="219" y="429" type="curve" smooth="yes"/>
      <point x="184" y="429"/>
      <point x="164" y="453"/>
      <point x="164" y="495" type="curve" smooth="yes"/>
      <point x="164" y="565"/>
      <point x="203" y="622"/>
      <point x="251" y="622" type="curve" smooth="yes"/>
      <point x="286" y="622"/>
      <point x="307" y="597"/>
      <point x="307" y="556" type="curve" smooth="yes"/>
      <point x="307" y="486"/>
      <point x="268" y="429"/>
    </contour>
  </outline>
</glyph>
<glyph name="uni2074" format="2">
  <advance width="360"/>
  <unicode hex="2074"/>
  <outline>
    <contour>
      <point x="231" y="350" type="line"/>
      <point x="327" y="350" type="line"/>
      <point x="342" y="422" type="line"/>
      <point x="385" y="422" type="line"/>
      <point x="402" y="502" type="line"/>
      <point x="359" y="502" type="line"/>
      <point x="401" y="700" type="line"/>
      <point x="288" y="700" type="line"/>
      <point x="71" y="501" type="line"/>
      <point x="54" y="422" type="line"/>
      <point x="246" y="422" type="line"/>
    </contour>
    <contour>
      <point x="178" y="502" type="line"/>
      <point x="284" y="600" type="line"/>
      <point x="264" y="502" type="line"/>
    </contour>
  </outline>
</glyph>
<glyph name="uni2075" format="2">
  <advance width="323"/>
  <unicode hex="2075"/>
  <outline>
    <contour>
      <point x="194" y="346" type="curve" smooth="yes"/>
      <point x="283" y="346"/>
      <point x="350" y="403"/>
      <point x="350" y="479" type="curve" smooth="yes"/>
      <point x="350" y="535"/>
      <point x="298" y="576"/>
      <point x="227" y="576" type="curve" smooth="yes"/>
      <point x="214" y="576"/>
      <point x="202" y="575"/>
      <point x="187" y="571" type="curve"/>
      <point x="199" y="619" type="line"/>
      <point x="361" y="619" type="line"/>
      <point x="378" y="700" type="line"/>
      <point x="137" y="700" type="line"/>
      <point x="92" y="517" type="line"/>
      <point x="152" y="493" type="line"/>
      <point x="165" y="498"/>
      <point x="181" y="501"/>
      <point x="195" y="501" type="curve" smooth="yes"/>
      <point x="227" y="501"/>
      <point x="252" y="485"/>
      <point x="252" y="464" type="curve" smooth="yes"/>
      <point x="252" y="443"/>
      <point x="228" y="426"/>
      <point x="199" y="426" type="curve" smooth="yes"/>
      <point x="169" y="426"/>
      <point x="147" y="436"/>
      <point x="120" y="465" type="curve"/>
      <point x="52" y="404" type="line"/>
      <point x="84" y="367"/>
      <point x="135" y="346"/>
    </contour>
  </outline>
</glyph>
<glyph name="uni2076" format="2">
  <advance width="337"/>
  <unicode hex="2076"/>
  <outline>
    <contour>
      <point x="214" y="344" type="curve" smooth="yes"/>
      <point x="294" y="344"/>
      <point x="360" y="402"/>
      <point x="360" y="473" type="curve" smooth="yes"/>
      <point x="360" y="527"/>
      <point x="317" y="565"/>
      <point x="257" y="565" type="curve" smooth="yes"/>
      <point x="225" y="565"/>
      <point x="194" y="554"/>
      <point x="171" y="535" type="curve"/>
      <point x="184" y="586"/>
      <point x="220" y="622"/>
      <point x="261" y="622" type="curve" smooth="yes"/>
      <point x="293" y="622"/>
      <point x="313" y="613"/>
      <point x="330" y="592" type="curve"/>
      <point x="395" y="654" type="line"/>
      <point x="368" y="686"/>
      <point x="325" y="705"/>
      <point x="277" y="705" type="curve" smooth="yes"/>
      <point x="164" y="705"/>
      <point x="71" y="608"/>
      <point x="71" y="490" type="curve" smooth="yes"/>
      <point x="71" y="400"/>
      <point x="126" y="344"/>
    </contour>
    <contour>
      <point x="220" y="426" type="curve" smooth="yes"/>
      <point x="192" y="426"/>
      <point x="173" y="442"/>
      <point x="167" y="469" type="curve"/>
      <point x="186" y="484"/>
      <point x="206" y="492"/>
      <point x="228" y="492" type="curve" smooth="yes"/>
      <point x="251" y="492"/>
      <point x="267" y="479"/>
      <point x="267" y="461" type="curve" smooth="yes"/>
      <point x="267" y="441"/>
      <point x="247" y="426"/>
    </contour>
  </outline>
</glyph>
<glyph name="uni2078" format="2">
  <advance width="334"/>
  <unicode hex="2078"/>
  <outline>
    <contour>
      <point x="198" y="344" type="curve" smooth="yes"/>
      <point x="283" y="344"/>
      <point x="351" y="395"/>
      <point x="351" y="459" type="curve" smooth="yes"/>
      <point x="351" y="485"/>
      <point x="339" y="507"/>
      <point x="318" y="521" type="curve"/>
      <point x="351" y="541"/>
      <point x="375" y="574"/>
      <point x="375" y="611" type="curve" smooth="yes"/>
      <point x="375" y="666"/>
      <point x="323" y="705"/>
      <point x="249" y="705" type="curve" smooth="yes"/>
      <point x="168" y="705"/>
      <point x="101" y="653"/>
      <point x="101" y="589" type="curve" smooth="yes"/>
      <point x="101" y="567"/>
      <point x="110" y="547"/>
      <point x="126" y="532" type="curve"/>
      <point x="87" y="515"/>
      <point x="60" y="479"/>
      <point x="60" y="439" type="curve" smooth="yes"/>
      <point x="60" y="382"/>
      <point x="115" y="344"/>
    </contour>
    <contour>
      <point x="234" y="560" type="curve" smooth="yes"/>
      <point x="211" y="560"/>
      <point x="194" y="572"/>
      <point x="194" y="589" type="curve" smooth="yes"/>
      <point x="194" y="609"/>
      <point x="215" y="626"/>
      <point x="240" y="626" type="curve" smooth="yes"/>
      <point x="263" y="626"/>
      <point x="279" y="614"/>
      <point x="279" y="597" type="curve" smooth="yes"/>
      <point x="279" y="578"/>
      <point x="257" y="560"/>
    </contour>
    <contour>
      <point x="205" y="424" type="curve" smooth="yes"/>
      <point x="176" y="424"/>
      <point x="158" y="436"/>
      <point x="158" y="454" type="curve" smooth="yes"/>
      <point x="158" y="474"/>
      <point x="181" y="490"/>
      <point x="209" y="490" type="curve" smooth="yes"/>
      <point x="237" y="490"/>
      <point x="256" y="478"/>
      <point x="256" y="459" type="curve" smooth="yes"/>
      <point x="256" y="439"/>
      <point x="235" y="424"/>
    </contour>
  </outline>
</glyph>
<glyph name="uni2083" format="2">
  <advance width="329"/>
  <unicode hex="2083"/>
  <outline>
    <contour>
      <point x="120" y="-5" type="curve" smooth="yes"/>
      <point x="205" y="-5"/>
      <point x="273" y="45"/>
      <point x="273" y="108" type="curve" smooth="yes"/>
      <point x="273" y="134"/>
      <point x="260" y="154"/>
      <point x="237" y="167" type="curve"/>
      <point x="274" y="187"/>
      <point x="300" y="221"/>
      <point x="300" y="258" type="curve" smooth="yes"/>
      <point x="300" y="316"/>
      <point x="247" y="356"/>
      <point x="170" y="356" type="curve" smooth="yes"/>
      <point x="118" y="356"/>
      <point x="64" y="336"/>
      <point x="23" y="300" type="curve"/>
      <point x="75" y="237" type="line"/>
      <point x="102" y="261"/>
      <point x="128" y="272"/>
      <point x="156" y="272" type="curve" smooth="yes"/>
      <point x="181" y="272"/>
      <point x="200" y="258"/>
      <point x="200" y="241" type="curve" smooth="yes"/>
      <point x="200" y="223"/>
      <point x="175" y="208"/>
      <point x="144" y="208" type="curve" smooth="yes"/>
      <point x="121" y="208" type="line"/>
      <point x="105" y="130" type="line"/>
      <point x="139" y="130" type="line" smooth="yes"/>
      <point x="165" y="130"/>
      <point x="178" y="122"/>
      <point x="178" y="107" type="curve" smooth="yes"/>
      <point x="178" y="91"/>
      <point x="156" y="79"/>
      <point x="127" y="79" type="curve" smooth="yes"/>
      <point x="89" y="79"/>
      <point x="67" y="90"/>
      <point x="48" y="119" type="curve"/>
      <point x="-25" y="64" type="line"/>
      <point x="0" y="20"/>
      <point x="53" y="-5"/>
    </contour>
  </outline>
</glyph>
<glyph name="uni2085" format="2">
  <advance width="323"/>
  <unicode hex="2085"/>
  <outline>
    <contour>
      <point x="120" y="-4" type="curve" smooth="yes"/>
      <point x="209" y="-4"/>
      <point x="276" y="53"/>
      <point x="276" y="129" type="curve" smooth="yes"/>
      <point x="276" y="185"/>
      <point x="224" y="226"/>
      <point x="153" y="226" type="curve" smooth="yes"/>
      <point x="140" y="226"/>
      <point x="128" y="225"/>
      <point x="113" y="221" type="curve"/>
      <point x="125" y="269" type="line"/>
      <point x="287" y="269" type="line"/>
      <point x="304" y="350" type="line"/>
      <point x="63" y="350" type="line"/>
      <point x="18" y="167" type="line"/>
      <point x="78" y="143" type="line"/>
      <point x="91" y="148"/>
      <point x="107" y="151"/>
      <point x="121" y="151" type="curve" smooth="yes"/>
      <point x="153" y="151"/>
      <point x="178" y="135"/>
      <point x="178" y="114" type="curve" smooth="yes"/>
      <point x="178" y="93"/>
      <point x="154" y="76"/>
      <point x="125" y="76" type="curve" smooth="yes"/>
      <point x="95" y="76"/>
      <point x="73" y="86"/>
      <point x="46" y="115" type="curve"/>
      <point x="-22" y="54" type="line"/>
      <point x="10" y="17"/>
      <point x="61" y="-4"/>
    </contour>
  </outline>
</glyph>
<glyph name="trademark" format="2">
  <advance width="680"/>
  <unicode hex="2122"/>
  <outline>
    <contour>
      <point x="355" y="421" type="line"/>
      <point x="431" y="421" type="line"/>
      <point x="470" y="608" type="line"/>
      <point x="522" y="438" type="line"/>
      <point x="645" y="603" type="line"/>
      <point x="605" y="421" type="line"/>
      <point x="678" y="421" type="line"/>
      <point x="738" y="700" type="line"/>
      <point x="641" y="700" type="line"/>
      <point x="546" y="565" type="line"/>
      <point x="508" y="700" type="line"/>
      <point x="415" y="700" type="line"/>
    </contour>
    <contour>
      <point x="145" y="421" type="line"/>
      <point x="225" y="421" type="line"/>
      <point x="271" y="633" type="line"/>
      <point x="360" y="633" type="line"/>
      <point x="374" y="700" type="line"/>
      <point x="116" y="700" type="line"/>
      <point x="102" y="633" type="line"/>
      <point x="191" y="633" type="line"/>
    </contour>
  </outline>
</glyph>
<glyph name="notequal" format="2">
  <advance width="600"/>
  <unicode hex="2260"/>
  <outline>
    <contour>
      <point x="42" y="81" type="line"/>
      <point x="162" y="81" type="line"/>
      <point x="248" y="187" type="line"/>
      <point x="513" y="187" type="line"/>
      <point x="539" y="311" type="line"/>
      <point x="348" y="311" type="line"/>
      <point x="411" y="389" type="line"/>
      <point x="556" y="389" type="line"/>
      <point x="582" y="513" type="line"/>
      <point x="511" y="513" type="line"/>
      <point x="598" y="621" type="line"/>
      <point x="480" y="621" type="line"/>
      <point x="392" y="513" type="line"/>
      <point x="132" y="513" type="line"/>
      <point x="106" y="389" type="line"/>
      <point x="292" y="389" type="line"/>
      <point x="229" y="311" type="line"/>
      <point x="89" y="311" type="line"/>
      <point x="63" y="187" type="line"/>
      <point x="128" y="187" type="line"/>
    </contour>
  </outline>
</glyph>
<glyph name="a.school" format="2">
  <advance width="635"/>
  <anchor x="339" y="529" name="top"/>
  <anchor x="530" y="0" name="bottom"/>
  <outline>
    <contour>
      <point x="263" y="-7" type="curve" smooth="yes"/>
      <point x="303" y="-7"/>
      <point x="342" y="3"/>
      <point x="378" y="22" type="curve"/>
      <point x="373" y="0" type="line"/>
      <point x="530" y="0" type="line"/>
      <point x="642" y="529" type="line"/>
      <point x="484" y="529" type="line"/>
      <point x="475" y="487" type="line"/>
      <point x="435" y="519"/>
      <point x="382" y="536"/>
      <point x="323" y="536" type="curve" smooth="yes"/>
      <point x="159" y="536"/>
      <point x="27" y="404"/>
      <point x="27" y="239" type="curve" smooth="yes"/>
      <point x="27" y="100"/>
      <point x="130" y="-7"/>
    </contour>
    <contour>
      <point x="307" y="130" type="curve" smooth="yes"/>
      <point x="236" y="130"/>
      <point x="183" y="183"/>
      <point x="183" y="253" type="curve" smooth="yes"/>
      <point x="183" y="334"/>
      <point x="247" y="398"/>
      <point x="329" y="398" type="curve" smooth="yes"/>
      <point x="376" y="398"/>
      <point x="419" y="380"/>
      <point x="446" y="352" type="curve"/>
      <point x="406" y="164" type="line"/>
      <point x="378" y="141"/>
      <point x="345" y="130"/>
    </contour>
  </outline>
</glyph>
<glyph name="acutecomb" format="2">
  <anchor x="361" y="529" name="_top"/>
  <outline>
    <contour>
      <point x="299" y="611" type="line"/>
      <point x="429" y="611" type="line"/>
      <point x="594" y="747" type="line"/>
      <point x="416" y="747" type="line"/>
    </contour>
  </outline>
</glyph>
<glyph name="aogonek.school" format="2">
  <advance width="635"/>
  <outline>
    <contour>
      <point x="418" y="-221" type="curve" smooth="yes"/>
      <point x="449" y="-221"/>
      <point x="482" y="-213"/>
      <point x="508" y="-198" type="curve"/>
      <point x="502" y="-128" type="line"/>
      <point x="491" y="-135"/>
      <point x="477" y="-139"/>
      <point x="464" y="-139" type="curve" smooth="yes"/>
      <point x="440" y="-139"/>
      <point x="426" y="-128"/>
      <point x="426" y="-108" type="curve" smooth="yes"/>
      <point x="426" y="-72"/>
      <point x="460" y="-37"/>
      <point x="530" y="0" type="curve"/>
      <point x="642" y="529" type="line"/>
      <point x="484" y="529" type="line"/>
      <point x="475" y="487" type="line"/>
      <point x="435" y="519"/>
      <point x="382" y="536"/>
      <point x="323" y="536" type="curve" smooth="yes"/>
      <point x="159" y="536"/>
      <point x="27" y="404"/>
      <point x="27" y="239" type="curve" smooth="yes"/>
      <point x="27" y="100"/>
      <point x="130" y="-7"/>
      <point x="263" y="-7" type="curve" smooth="yes"/>
      <point x="303" y="-7"/>
      <point x="342" y="3"/>
      <point x="378" y="22" type="curve"/>
      <point x="373" y="0" type="line"/>
      <point x="445" y="0" type="line"/>
      <point x="368" y="-44"/>
      <point x="330" y="-93"/>
      <point x="330" y="-148" type="curve" smooth="yes"/>
      <point x="330" y="-193"/>
      <point x="364" y="-221"/>
    </contour>
    <contour>
      <point x="307" y="130" type="curve" smooth="yes"/>
      <point x="236" y="130"/>
      <point x="183" y="183"/>
      <point x="183" y="253" type="curve" smooth="yes"/>
      <point x="183" y="334"/>
      <point x="247" y="398"/>
      <point x="329" y="398" type="curve" smooth="yes"/>
      <point x="376" y="398"/>
      <point x="419" y="380"/>
      <point x="446" y="352" type="curve"/>
      <point x="406" y="164" type="line"/>
      <point x="378" y="141"/>
      <point x="345" y="130"/>
    </contour>
  </outline>
</glyph>
<glyph name="caronSlovak" format="2">
  <advance width="600"/>
  <outline>
    <contour>
      <point x="281" y="498" type="line"/>
      <point x="370" y="498" type="line"/>
      <point x="470" y="727" type="line"/>
      <point x="335" y="702" type="line"/>
    </contour>
  </outline>
</glyph>
<glyph name="commaaccent" format="2">
  <advance width="600"/>
  <anchor x="265" y="0" name="_bottom"/>
  <outline>
    <contour>
      <point x="72" y="-295" type="line"/>
      <point x="186" y="-295" type="line"/>
      <point x="320" y="-80" type="line"/>
      <point x="172" y="-80" type="line"/>
    </contour>
  </outline>
</glyph>
<glyph name="one.tab" format="2">
  <advance width="600"/>
  <outline>
    <contour>
      <point x="18" y="0" type="line"/>
      <point x="521" y="0" type="line"/>
      <point x="549" y="131" type="line"/>
      <point x="377" y="131" type="line"/>
      <point x="499" y="700" type="line"/>
      <point x="402" y="700" type="line"/>
      <point x="147" y="603" type="line"/>
      <point x="117" y="461" type="line"/>
      <point x="310" y="534" type="line"/>
      <point x="223" y="131" type="line"/>
      <point x="46" y="131" type="line"/>
    </contour>
  </outline>
</glyph>
<glyph name="reversequotedblleft" format="2">
  <advance width="464"/>
  <outline>
    <contour>
      <point x="246" y="750" type="line"/>
      <point x="79" y="750" type="line"/>
      <point x="148" y="466" type="line"/>
      <point x="269" y="466" type="line"/>
    </contour>
    <contour>
      <point x="460" y="750" type="line"/>
      <point x="293" y="750" type="line"/>
      <point x="362" y="466" type="line"/>
      <point x="483" y="466" type="line"/>
    </contour>
  </outline>
</glyph>
<glyph name="reversequoteleft" format="2">
  <advance width="250"/>
  <outline>
    <contour>
      <point x="246" y="750" type="line"/>
      <point x="79" y="750" type="line"/>
      <point x="148" y="466" type="line"/>
      <point x="269" y="466" type="line"/>
    </contour>
  </outline>
</glyph>
<glyph name="six.tab" format="2">
  <advance width="600"/>
  <outline>
    <contour>
      <point x="302" y="-11" type="curve" smooth="yes"/>
      <point x="453" y="-11"/>
      <point x="577" y="104"/>
      <point x="577" y="244" type="curve" smooth="yes"/>
      <point x="577" y="351"/>
      <point x="490" y="430"/>
      <point x="373" y="430" type="curve" smooth="yes"/>
      <point x="306" y="430"/>
      <point x="242" y="397"/>
      <point x="194" y="337" type="curve"/>
      <point x="216" y="477"/>
      <point x="305" y="576"/>
      <point x="408" y="576" type="curve" smooth="yes"/>
      <point x="459" y="576"/>
      <point x="503" y="557"/>
      <point x="545" y="517" type="curve"/>
      <point x="640" y="625" type="line"/>
      <point x="586" y="680"/>
      <point x="507" y="711"/>
      <point x="420" y="711" type="curve" smooth="yes"/>
      <point x="208" y="711"/>
      <point x="41" y="518"/>
      <point x="41" y="274" type="curve" smooth="yes"/>
      <point x="41" y="99"/>
      <point x="142" y="-11"/>
    </contour>
    <contour>
      <point x="313" y="122" type="curve" smooth="yes"/>
      <point x="239" y="122"/>
      <point x="191" y="176"/>
      <point x="188" y="262" type="curve"/>
      <point x="228" y="296"/>
      <point x="276" y="313"/>
      <point x="327" y="313" type="curve" smooth="yes"/>
      <point x="385" y="313"/>
      <point x="430" y="275"/>
      <point x="430" y="225" type="curve" smooth="yes"/>
      <point x="430" y="167"/>
      <point x="379" y="122"/>
    </contour>
  </outline>
</glyph>
<glyph name="zero.tab" format="2">
  <advance width="600"/>
  <outline>
    <contour>
      <point x="276" y="-9" type="curve" smooth="yes"/>
      <point x="455" y="-9"/>
      <point x="594" y="187"/>
      <point x="594" y="439" type="curve" smooth="yes"/>
      <point x="594" y="605"/>
      <point x="507" y="709"/>
      <point x="368" y="709" type="curve" smooth="yes"/>
      <point x="189" y="709"/>
      <point x="50" y="513"/>
      <point x="50" y="261" type="curve" smooth="yes"/>
      <point x="50" y="95"/>
      <point x="137" y="-9"/>
    </contour>
    <contour>
      <point x="200" y="242" type="line"/>
      <point x="199" y="247"/>
      <point x="199" y="252"/>
      <point x="199" y="263" type="curve" smooth="yes"/>
      <point x="199" y="435"/>
      <point x="272" y="575"/>
      <point x="362" y="575" type="curve" smooth="yes"/>
      <point x="379" y="575"/>
      <point x="394" y="570"/>
      <point x="407" y="559" type="curve"/>
    </contour>
    <contour>
      <point x="282" y="125" type="curve" smooth="yes"/>
      <point x="265" y="125"/>
      <point x="250" y="130"/>
      <point x="238" y="140" type="curve"/>
      <point x="444" y="458" type="line"/>
      <point x="445" y="453"/>
      <point x="445" y="448"/>
      <point x="445" y="437" type="curve" smooth="yes"/>
      <point x="445" y="265"/>
      <point x="372" y="125"/>
    </contour>
  </outline>
</glyph>
